<?xml version="1.0" encoding="UTF-8" standalone="no"?>
<svg
   xmlns:dc="http://purl.org/dc/elements/1.1/"
   xmlns:cc="http://creativecommons.org/ns#"
   xmlns:rdf="http://www.w3.org/1999/02/22-rdf-syntax-ns#"
   xmlns:svg="http://www.w3.org/2000/svg"
   xmlns="http://www.w3.org/2000/svg"
   xmlns:sodipodi="http://sodipodi.sourceforge.net/DTD/sodipodi-0.dtd"
   xmlns:inkscape="http://www.inkscape.org/namespaces/inkscape"
   inkscape:version="1.0rc1 (09960d6, 2020-04-09)"
   sodipodi:docname="ErrorBounds_n3.svg"
   viewBox="0 0 446.4408 230.72279"
   height="230.72279"
   width="446.4408"
   xml:space="preserve"
   id="svg10"
   version="1.1"><metadata
     id="metadata16"><rdf:RDF><cc:Work
         rdf:about=""><dc:format>image/svg+xml</dc:format><dc:type
           rdf:resource="http://purl.org/dc/dcmitype/StillImage" /><dc:title></dc:title></cc:Work></rdf:RDF></metadata><defs
     id="defs14" /><sodipodi:namedview
     inkscape:current-layer="g20"
     inkscape:window-maximized="0"
     inkscape:window-y="22"
     inkscape:window-x="0"
     inkscape:cy="116.36249"
     inkscape:cx="224.10748"
     inkscape:zoom="1.5621302"
     showgrid="false"
     id="namedview12"
     inkscape:window-height="952"
     inkscape:window-width="1810"
     inkscape:pageshadow="2"
     inkscape:pageopacity="0"
     guidetolerance="10"
     gridtolerance="10"
     objecttolerance="10"
     borderopacity="1"
     bordercolor="#666666"
     pagecolor="#ffffff" /><g
     transform="matrix(1.3333333,0,0,-1.3333333,-1.2258466,234.00249)"
     inkscape:label="ErrorBounds_n3"
     inkscape:groupmode="layer"
     id="g18"><g
       transform="scale(0.1)"
       id="g20"><g
         id="g425"><path
           d="m 490,475.02 h 1200 v 1275 H 490 Z"
           style="fill:#ffffff;fill-opacity:1;fill-rule:nonzero;stroke:none"
           id="path26"
           inkscape:connector-curvature="0" /><path
           d="M 490,475.02 H 1690"
           style="fill:none;stroke:#262626;stroke-width:9.9975;stroke-linecap:square;stroke-linejoin:round;stroke-miterlimit:10;stroke-dasharray:none;stroke-opacity:1"
           id="path28"
           inkscape:connector-curvature="0" /><path
           d="M 490,1750.02 H 1690"
           style="fill:none;stroke:#262626;stroke-width:9.9975;stroke-linecap:square;stroke-linejoin:round;stroke-miterlimit:10;stroke-dasharray:none;stroke-opacity:1"
           id="path30"
           inkscape:connector-curvature="0" /><path
           d="m 490,475.02 v 12.75"
           style="fill:none;stroke:#262626;stroke-width:9.9975;stroke-linecap:square;stroke-linejoin:round;stroke-miterlimit:10;stroke-dasharray:none;stroke-opacity:1"
           id="path32"
           inkscape:connector-curvature="0" /><path
           d="m 889.996,475.02 v 12.75"
           style="fill:none;stroke:#262626;stroke-width:9.9975;stroke-linecap:square;stroke-linejoin:round;stroke-miterlimit:10;stroke-dasharray:none;stroke-opacity:1"
           id="path34"
           inkscape:connector-curvature="0" /><path
           d="m 1290,475.02 v 12.75"
           style="fill:none;stroke:#262626;stroke-width:9.9975;stroke-linecap:square;stroke-linejoin:round;stroke-miterlimit:10;stroke-dasharray:none;stroke-opacity:1"
           id="path36"
           inkscape:connector-curvature="0" /><path
           d="m 490,1750.02 v -12.75"
           style="fill:none;stroke:#262626;stroke-width:9.9975;stroke-linecap:square;stroke-linejoin:round;stroke-miterlimit:10;stroke-dasharray:none;stroke-opacity:1"
           id="path38"
           inkscape:connector-curvature="0" /><path
           d="m 889.996,1750.02 v -12.75"
           style="fill:none;stroke:#262626;stroke-width:9.9975;stroke-linecap:square;stroke-linejoin:round;stroke-miterlimit:10;stroke-dasharray:none;stroke-opacity:1"
           id="path40"
           inkscape:connector-curvature="0" /><path
           d="m 1290,1750.02 v -12.75"
           style="fill:none;stroke:#262626;stroke-width:9.9975;stroke-linecap:square;stroke-linejoin:round;stroke-miterlimit:10;stroke-dasharray:none;stroke-opacity:1"
           id="path42"
           inkscape:connector-curvature="0" /><g
           id="g44"
           transform="scale(10)"><text
             transform="matrix(1,0,0,-1,44.5,27.302)"
             style="font-variant:normal;font-weight:normal;font-size:15.9998px;font-family:Helvetica;-inkscape-font-specification:Helvetica;writing-mode:lr-tb;fill:#262626;fill-opacity:1;fill-rule:nonzero;stroke:none"
             id="text48"><tspan
               x="0 33.250145 42.146034 46.593979 73.250282 82.146172 86.594116"
               y="0"
               sodipodi:role="line"
               id="tspan46">00.10.2</tspan></text><text
             transform="matrix(1,0,0,-1,90.625,6.052)"
             style="font-variant:normal;font-weight:normal;font-size:17.6002px;font-family:Helvetica;-inkscape-font-specification:Helvetica;writing-mode:lr-tb;fill:#262626;fill-opacity:1;fill-rule:nonzero;stroke:none"
             id="text52"><tspan
               x="0 10.753722 15.646578 21.507444 30.307545"
               y="0"
               sodipodi:role="line"
               id="tspan50">T (s)</tspan></text></g><path
           d="m 490,475.02 v 1275"
           style="fill:none;stroke:#262626;stroke-width:9.9975;stroke-linecap:square;stroke-linejoin:round;stroke-miterlimit:10;stroke-dasharray:none;stroke-opacity:1"
           id="path54"
           inkscape:connector-curvature="0" /><path
           d="m 1690,475.02 v 1275"
           style="fill:none;stroke:#262626;stroke-width:9.9975;stroke-linecap:square;stroke-linejoin:round;stroke-miterlimit:10;stroke-dasharray:none;stroke-opacity:1"
           id="path56"
           inkscape:connector-curvature="0" /><path
           d="m 490,475.02 h 12.75"
           style="fill:none;stroke:#262626;stroke-width:9.9975;stroke-linecap:square;stroke-linejoin:round;stroke-miterlimit:10;stroke-dasharray:none;stroke-opacity:1"
           id="path58"
           inkscape:connector-curvature="0" /><path
           d="m 490,793.77 h 12.75"
           style="fill:none;stroke:#262626;stroke-width:9.9975;stroke-linecap:square;stroke-linejoin:round;stroke-miterlimit:10;stroke-dasharray:none;stroke-opacity:1"
           id="path60"
           inkscape:connector-curvature="0" /><path
           d="m 490,1112.52 h 12.75"
           style="fill:none;stroke:#262626;stroke-width:9.9975;stroke-linecap:square;stroke-linejoin:round;stroke-miterlimit:10;stroke-dasharray:none;stroke-opacity:1"
           id="path62"
           inkscape:connector-curvature="0" /><path
           d="m 490,1431.27 h 12.75"
           style="fill:none;stroke:#262626;stroke-width:9.9975;stroke-linecap:square;stroke-linejoin:round;stroke-miterlimit:10;stroke-dasharray:none;stroke-opacity:1"
           id="path64"
           inkscape:connector-curvature="0" /><path
           d="m 1690,475.02 h -12.75"
           style="fill:none;stroke:#262626;stroke-width:9.9975;stroke-linecap:square;stroke-linejoin:round;stroke-miterlimit:10;stroke-dasharray:none;stroke-opacity:1"
           id="path66"
           inkscape:connector-curvature="0" /><path
           d="m 1690,793.77 h -12.75"
           style="fill:none;stroke:#262626;stroke-width:9.9975;stroke-linecap:square;stroke-linejoin:round;stroke-miterlimit:10;stroke-dasharray:none;stroke-opacity:1"
           id="path68"
           inkscape:connector-curvature="0" /><path
           d="m 1690,1112.52 h -12.75"
           style="fill:none;stroke:#262626;stroke-width:9.9975;stroke-linecap:square;stroke-linejoin:round;stroke-miterlimit:10;stroke-dasharray:none;stroke-opacity:1"
           id="path70"
           inkscape:connector-curvature="0" /><path
           d="m 1690,1431.27 h -12.75"
           style="fill:none;stroke:#262626;stroke-width:9.9975;stroke-linecap:square;stroke-linejoin:round;stroke-miterlimit:10;stroke-dasharray:none;stroke-opacity:1"
           id="path72"
           inkscape:connector-curvature="0" /><g
           id="g74"
           transform="scale(10)"><text
             transform="matrix(1,0,0,-1,34.8,41.877)"
             style="font-variant:normal;font-weight:normal;font-size:15.9998px;font-family:Helvetica;-inkscape-font-specification:Helvetica;writing-mode:lr-tb;fill:#262626;fill-opacity:1;fill-rule:nonzero;stroke:none"
             id="text84"><tspan
               x="0"
               y="0"
               id="tspan76">0</tspan><tspan
               x="-13.5 -4.6041112 -0.15616681"
               y="-31.875"
               sodipodi:role="line"
               id="tspan78">0.2</tspan><tspan
               x="-13.5 -4.6041112 -0.15616681"
               y="-63.75"
               sodipodi:role="line"
               id="tspan80">0.4</tspan><tspan
               x="-13.5 -4.6041112 -0.15616681"
               y="-95.625"
               sodipodi:role="line"
               id="tspan82">0.6</tspan></text></g><path
           d="m 139.496,885.293 c 0,-5.234 -1.918,-9.414 -5.746,-12.539 -3.828,-3.125 -8.441,-5.293 -13.828,-6.504 -5.391,-1.211 -10.742,-1.816 -16.051,-1.816 h -0.121 c -5.7812,0 -11.7578,0.55 -17.9336,1.644 -6.168,1.09 -12.3203,2.668 -18.457,4.738 -6.1289,2.075 -11.6172,4.325 -16.461,6.743 -3.3593,1.722 -7.1093,3.91 -11.25,6.562 -4.1406,2.656 -8.0273,5.625 -11.664,8.902 -3.6289,3.286 -6.5586,6.821 -8.7813,10.606 -2.2304,3.793 -3.3437,7.641 -3.3437,11.551 v 0.113 c 0,4.141 1.1523,7.598 3.457,10.371 2.3047,2.777 5.2539,4.945 8.8477,6.504 3.5976,1.566 7.4453,2.66 11.5429,3.285 4.1016,0.625 7.9883,0.938 11.6641,0.938 8.75,0 17.6523,-1.192 26.7148,-3.578 9.0625,-2.379 17.8555,-5.641 26.3671,-9.79 3.125,-1.558 6.856,-3.726 11.192,-6.5 4.335,-2.769 8.222,-5.718 11.664,-8.843 3.433,-3.125 6.324,-6.621 8.668,-10.492 2.347,-3.864 3.519,-7.754 3.519,-11.665 z m -4.574,0.352 c 0,3.832 -2.051,7.503 -6.152,11.019 -4.098,3.512 -9.043,6.578 -14.829,9.195 -5.777,2.618 -11.714,4.922 -17.8121,6.914 -6.0898,1.993 -11.2851,3.5 -15.582,4.516 v -35.273 c 7.2617,-1.801 13.5117,-3.207 18.75,-4.223 5.2341,-1.016 10.3911,-1.523 15.4691,-1.523 13.437,0 20.156,3.125 20.156,9.375 z m -60.4689,-2.227 v 35.391 c -5,1.171 -9.1992,2.129 -12.5976,2.875 -3.4024,0.738 -6.9922,1.363 -10.7774,1.875 -3.789,0.504 -7.289,0.757 -10.4922,0.757 -13.5156,0 -20.2734,-3.046 -20.2734,-9.136 0,-7.344 5.8789,-13.676 17.6406,-18.989 11.7539,-5.312 23.9219,-9.57 36.5,-12.773"
           style="fill:#262626;fill-opacity:1;fill-rule:nonzero;stroke:none"
           id="path86"
           inkscape:connector-curvature="0" /><g
           id="g88"
           transform="scale(10)"><text
             transform="matrix(0,1,1,0,13.75,98.894856)"
             style="font-variant:normal;font-weight:normal;font-size:17.6002px;font-family:Helvetica;-inkscape-font-specification:Helvetica;writing-mode:lr-tb;fill:#262626;fill-opacity:1;fill-rule:nonzero;stroke:none"
             id="text92"><tspan
               x="0 5.8608665 11.721733 21.507444 31.293156"
               y="0"
               sodipodi:role="line"
               id="tspan90">(rad)</tspan></text></g><path
           d="m 490,475.02 h 80.004 l 39.996,0.015 39.996,0.024 40.008,0.05 39.996,0.09 39.996,0.16 40.008,0.239 39.996,0.343 39.996,0.489 40.008,0.652 39.996,0.863 40,1.102 40,1.387 40,1.726 40,2.102 40,2.535 40,3.019 40,3.571 40,4.187 40,4.86 40,5.609 40,6.426 40,7.32 40,8.297 40,9.352 40,10.5 40,11.73 40,13.059 40,14.472"
           style="fill:none;stroke:#00ff00;stroke-width:20.0025;stroke-linecap:butt;stroke-linejoin:round;stroke-miterlimit:10;stroke-dasharray:none;stroke-opacity:1"
           id="path94"
           inkscape:connector-curvature="0" /><path
           d="m 490,475.02 h 39.996 l 40.008,0.007 39.996,0.032 39.996,0.089 40.008,0.18 39.996,0.32 39.996,0.543 40.008,0.832 39.996,1.2 39.996,1.679 40.008,2.266 39.996,2.969 40,3.824 40,4.809 40,5.964 40,7.274 40,8.773 40,10.481 40,12.367 40,14.488 40,16.832 40,19.41 40,22.25 40,25.352 40,28.715 40,32.394 40,36.344 40,40.613 40,45.211 40,50.137"
           style="fill:none;stroke:#ff0000;stroke-width:20.0025;stroke-linecap:butt;stroke-linejoin:round;stroke-miterlimit:10;stroke-dasharray:none;stroke-opacity:1"
           id="path96"
           inkscape:connector-curvature="0" /><path
           d="m 499.996,475.02 c 0,-5.52 -4.476,-9.997 -9.996,-9.997 -5.52,0 -9.996,4.477 -9.996,9.997 0,5.519 4.476,9.996 9.996,9.996 5.52,0 9.996,-4.477 9.996,-9.996"
           style="fill:#0000ff;fill-opacity:1;fill-rule:nonzero;stroke:none"
           id="path98"
           inkscape:connector-curvature="0" /><path
           d="m 539.996,475.02 c 0,-5.52 -4.476,-9.997 -9.996,-9.997 -5.52,0 -9.996,4.477 -9.996,9.997 0,5.519 4.476,10 9.996,10 5.52,0 9.996,-4.481 9.996,-10"
           style="fill:#0000ff;fill-opacity:1;fill-rule:nonzero;stroke:none"
           id="path100"
           inkscape:connector-curvature="0" /><path
           d="m 579.996,475.023 c 0,-5.519 -4.476,-10 -9.996,-10 -5.52,0 -9.996,4.481 -9.996,10 0,5.52 4.476,9.997 9.996,9.997 5.52,0 9.996,-4.477 9.996,-9.997"
           style="fill:#0000ff;fill-opacity:1;fill-rule:nonzero;stroke:none"
           id="path102"
           inkscape:connector-curvature="0" /><path
           d="m 619.996,475.031 c 0,-5.519 -4.476,-9.996 -9.996,-9.996 -5.52,0 -9.996,4.477 -9.996,9.996 0,5.52 4.476,9.996 9.996,9.996 5.52,0 9.996,-4.476 9.996,-9.996"
           style="fill:#0000ff;fill-opacity:1;fill-rule:nonzero;stroke:none"
           id="path104"
           inkscape:connector-curvature="0" /><path
           d="m 659.996,475.055 c 0,-5.52 -4.476,-9.996 -9.996,-9.996 -5.52,0 -9.996,4.476 -9.996,9.996 0,5.519 4.476,10 9.996,10 5.52,0 9.996,-4.481 9.996,-10"
           style="fill:#0000ff;fill-opacity:1;fill-rule:nonzero;stroke:none"
           id="path106"
           inkscape:connector-curvature="0" /><path
           d="m 699.996,475.105 c 0,-5.519 -4.476,-9.996 -9.996,-9.996 -5.52,0 -9.996,4.477 -9.996,9.996 0,5.52 4.476,10 9.996,10 5.52,0 9.996,-4.48 9.996,-10"
           style="fill:#0000ff;fill-opacity:1;fill-rule:nonzero;stroke:none"
           id="path108"
           inkscape:connector-curvature="0" /><path
           d="m 739.996,475.199 c 0,-5.523 -4.476,-10 -9.996,-10 -5.52,0 -9.996,4.477 -9.996,10 0,5.52 4.476,9.996 9.996,9.996 5.52,0 9.996,-4.476 9.996,-9.996"
           style="fill:#0000ff;fill-opacity:1;fill-rule:nonzero;stroke:none"
           id="path110"
           inkscape:connector-curvature="0" /><path
           d="m 779.996,475.348 c 0,-5.524 -4.476,-10 -9.996,-10 -5.52,0 -9.996,4.476 -9.996,10 0,5.519 4.476,9.996 9.996,9.996 5.52,0 9.996,-4.477 9.996,-9.996"
           style="fill:#0000ff;fill-opacity:1;fill-rule:nonzero;stroke:none"
           id="path112"
           inkscape:connector-curvature="0" /><path
           d="m 819.996,475.574 c 0,-5.519 -4.476,-9.996 -9.996,-9.996 -5.52,0 -9.996,4.477 -9.996,9.996 0,5.524 4.476,10 9.996,10 5.52,0 9.996,-4.476 9.996,-10"
           style="fill:#0000ff;fill-opacity:1;fill-rule:nonzero;stroke:none"
           id="path114"
           inkscape:connector-curvature="0" /><path
           d="m 859.996,475.914 c 0,-5.519 -4.476,-9.996 -9.996,-9.996 -5.52,0 -9.996,4.477 -9.996,9.996 0,5.524 4.476,10 9.996,10 5.52,0 9.996,-4.476 9.996,-10"
           style="fill:#0000ff;fill-opacity:1;fill-rule:nonzero;stroke:none"
           id="path116"
           inkscape:connector-curvature="0" /><path
           d="m 899.996,476.391 c 0,-5.52 -4.476,-9.996 -9.996,-9.996 -5.52,0 -9.996,4.476 -9.996,9.996 0,5.523 4.476,10 9.996,10 5.52,0 9.996,-4.477 9.996,-10"
           style="fill:#0000ff;fill-opacity:1;fill-rule:nonzero;stroke:none"
           id="path118"
           inkscape:connector-curvature="0" /><path
           d="m 939.996,477.039 c 0,-5.519 -4.476,-9.996 -9.996,-9.996 -5.52,0 -9.996,4.477 -9.996,9.996 0,5.52 4.476,9.996 9.996,9.996 5.52,0 9.996,-4.476 9.996,-9.996"
           style="fill:#0000ff;fill-opacity:1;fill-rule:nonzero;stroke:none"
           id="path120"
           inkscape:connector-curvature="0" /><path
           d="m 979.996,477.895 c 0,-5.524 -4.476,-10 -9.996,-10 -5.52,0 -9.996,4.476 -9.996,10 0,5.519 4.476,9.996 9.996,9.996 5.52,0 9.996,-4.477 9.996,-9.996"
           style="fill:#0000ff;fill-opacity:1;fill-rule:nonzero;stroke:none"
           id="path122"
           inkscape:connector-curvature="0" /><path
           d="m 1020,479.008 c 0,-5.52 -4.48,-9.996 -10,-9.996 -5.52,0 -10,4.476 -10,9.996 0,5.519 4.48,10 10,10 5.52,0 10,-4.481 10,-10"
           style="fill:#0000ff;fill-opacity:1;fill-rule:nonzero;stroke:none"
           id="path124"
           inkscape:connector-curvature="0" /><path
           d="m 1060,480.426 c 0,-5.52 -4.48,-9.996 -10,-9.996 -5.52,0 -10,4.476 -10,9.996 0,5.519 4.48,10 10,10 5.52,0 10,-4.481 10,-10"
           style="fill:#0000ff;fill-opacity:1;fill-rule:nonzero;stroke:none"
           id="path126"
           inkscape:connector-curvature="0" /><path
           d="m 1100,482.195 c 0,-5.519 -4.48,-9.996 -10,-9.996 -5.52,0 -10,4.477 -10,9.996 0,5.52 4.48,10 10,10 5.52,0 10,-4.48 10,-10"
           style="fill:#0000ff;fill-opacity:1;fill-rule:nonzero;stroke:none"
           id="path128"
           inkscape:connector-curvature="0" /><path
           d="m 1140,484.371 c 0,-5.519 -4.48,-10 -10,-10 -5.52,0 -10,4.481 -10,10 0,5.52 4.48,9.996 10,9.996 5.52,0 10,-4.476 10,-9.996"
           style="fill:#0000ff;fill-opacity:1;fill-rule:nonzero;stroke:none"
           id="path130"
           inkscape:connector-curvature="0" /><path
           d="m 1180,487.008 c 0,-5.52 -4.48,-9.996 -10,-9.996 -5.52,0 -10,4.476 -10,9.996 0,5.519 4.48,9.996 10,9.996 5.52,0 10,-4.477 10,-9.996"
           style="fill:#0000ff;fill-opacity:1;fill-rule:nonzero;stroke:none"
           id="path132"
           inkscape:connector-curvature="0" /><path
           d="m 1220,490.168 c 0,-5.52 -4.48,-10 -10,-10 -5.52,0 -10,4.48 -10,10 0,5.52 4.48,9.996 10,9.996 5.52,0 10,-4.476 10,-9.996"
           style="fill:#0000ff;fill-opacity:1;fill-rule:nonzero;stroke:none"
           id="path134"
           inkscape:connector-curvature="0" /><path
           d="m 1260,493.914 c 0,-5.519 -4.48,-9.996 -10,-9.996 -5.52,0 -10,4.477 -10,9.996 0,5.52 4.48,9.996 10,9.996 5.52,0 10,-4.476 10,-9.996"
           style="fill:#0000ff;fill-opacity:1;fill-rule:nonzero;stroke:none"
           id="path136"
           inkscape:connector-curvature="0" /><path
           d="m 1300,498.313 c 0,-5.52 -4.48,-9.997 -10,-9.997 -5.52,0 -10,4.477 -10,9.997 0,5.519 4.48,9.996 10,9.996 5.52,0 10,-4.477 10,-9.996"
           style="fill:#0000ff;fill-opacity:1;fill-rule:nonzero;stroke:none"
           id="path138"
           inkscape:connector-curvature="0" /><path
           d="m 1340,503.43 c 0,-5.52 -4.48,-9.996 -10,-9.996 -5.52,0 -10,4.476 -10,9.996 0,5.519 4.48,10 10,10 5.52,0 10,-4.481 10,-10"
           style="fill:#0000ff;fill-opacity:1;fill-rule:nonzero;stroke:none"
           id="path140"
           inkscape:connector-curvature="0" /><path
           d="m 1380,509.34 c 0,-5.52 -4.48,-10 -10,-10 -5.52,0 -10,4.48 -10,10 0,5.519 4.48,9.996 10,9.996 5.52,0 10,-4.477 10,-9.996"
           style="fill:#0000ff;fill-opacity:1;fill-rule:nonzero;stroke:none"
           id="path142"
           inkscape:connector-curvature="0" /><path
           d="m 1420,516.109 c 0,-5.519 -4.48,-10 -10,-10 -5.52,0 -10,4.481 -10,10 0,5.52 4.48,9.996 10,9.996 5.52,0 10,-4.476 10,-9.996"
           style="fill:#0000ff;fill-opacity:1;fill-rule:nonzero;stroke:none"
           id="path144"
           inkscape:connector-curvature="0" /><path
           d="m 1460,523.809 c 0,-5.52 -4.48,-9.996 -10,-9.996 -5.52,0 -10,4.476 -10,9.996 0,5.523 4.48,10 10,10 5.52,0 10,-4.477 10,-10"
           style="fill:#0000ff;fill-opacity:1;fill-rule:nonzero;stroke:none"
           id="path146"
           inkscape:connector-curvature="0" /><path
           d="m 1500,532.52 c 0,-5.524 -4.48,-10 -10,-10 -5.52,0 -10,4.476 -10,10 0,5.519 4.48,9.996 10,9.996 5.52,0 10,-4.477 10,-9.996"
           style="fill:#0000ff;fill-opacity:1;fill-rule:nonzero;stroke:none"
           id="path148"
           inkscape:connector-curvature="0" /><path
           d="m 1540,542.301 c 0,-5.52 -4.48,-9.996 -10,-9.996 -5.52,0 -10,4.476 -10,9.996 0,5.523 4.48,10 10,10 5.52,0 10,-4.477 10,-10"
           style="fill:#0000ff;fill-opacity:1;fill-rule:nonzero;stroke:none"
           id="path150"
           inkscape:connector-curvature="0" /><path
           d="m 1580,553.234 c 0,-5.519 -4.48,-9.996 -10,-9.996 -5.52,0 -10,4.477 -10,9.996 0,5.524 4.48,10 10,10 5.52,0 10,-4.476 10,-10"
           style="fill:#0000ff;fill-opacity:1;fill-rule:nonzero;stroke:none"
           id="path152"
           inkscape:connector-curvature="0" /><path
           d="m 1620,565.391 c 0,-5.524 -4.48,-10 -10,-10 -5.52,0 -10,4.476 -10,10 0,5.519 4.48,9.996 10,9.996 5.52,0 10,-4.477 10,-9.996"
           style="fill:#0000ff;fill-opacity:1;fill-rule:nonzero;stroke:none"
           id="path154"
           inkscape:connector-curvature="0" /><path
           d="m 1660,578.832 c 0,-5.519 -4.48,-10 -10,-10 -5.52,0 -10,4.481 -10,10 0,5.52 4.48,9.996 10,9.996 5.52,0 10,-4.476 10,-9.996"
           style="fill:#0000ff;fill-opacity:1;fill-rule:nonzero;stroke:none"
           id="path156"
           inkscape:connector-curvature="0" /><path
           d="m 1700,593.629 c 0,-5.52 -4.48,-10 -10,-10 -5.52,0 -10,4.48 -10,10 0,5.519 4.48,9.996 10,9.996 5.52,0 10,-4.477 10,-9.996"
           style="fill:#0000ff;fill-opacity:1;fill-rule:nonzero;stroke:none"
           id="path158"
           inkscape:connector-curvature="0" /><path
           d="m 2140,475.02 h 1207.5 v 1275 H 2140 Z"
           style="fill:#ffffff;fill-opacity:1;fill-rule:nonzero;stroke:none"
           id="path160"
           inkscape:connector-curvature="0" /><path
           d="M 2140,475.02 H 3347.5"
           style="fill:none;stroke:#262626;stroke-width:9.9975;stroke-linecap:square;stroke-linejoin:round;stroke-miterlimit:10;stroke-dasharray:none;stroke-opacity:1"
           id="path162"
           inkscape:connector-curvature="0" /><path
           d="M 2140,1750.02 H 3347.5"
           style="fill:none;stroke:#262626;stroke-width:9.9975;stroke-linecap:square;stroke-linejoin:round;stroke-miterlimit:10;stroke-dasharray:none;stroke-opacity:1"
           id="path164"
           inkscape:connector-curvature="0" /><path
           d="m 2140,475.02 v 12.75"
           style="fill:none;stroke:#262626;stroke-width:9.9975;stroke-linecap:square;stroke-linejoin:round;stroke-miterlimit:10;stroke-dasharray:none;stroke-opacity:1"
           id="path166"
           inkscape:connector-curvature="0" /><path
           d="m 2542.5,475.02 v 12.75"
           style="fill:none;stroke:#262626;stroke-width:9.9975;stroke-linecap:square;stroke-linejoin:round;stroke-miterlimit:10;stroke-dasharray:none;stroke-opacity:1"
           id="path168"
           inkscape:connector-curvature="0" /><path
           d="m 2945,475.02 v 12.75"
           style="fill:none;stroke:#262626;stroke-width:9.9975;stroke-linecap:square;stroke-linejoin:round;stroke-miterlimit:10;stroke-dasharray:none;stroke-opacity:1"
           id="path170"
           inkscape:connector-curvature="0" /><path
           d="m 2140,1750.02 v -12.75"
           style="fill:none;stroke:#262626;stroke-width:9.9975;stroke-linecap:square;stroke-linejoin:round;stroke-miterlimit:10;stroke-dasharray:none;stroke-opacity:1"
           id="path172"
           inkscape:connector-curvature="0" /><path
           d="m 2542.5,1750.02 v -12.75"
           style="fill:none;stroke:#262626;stroke-width:9.9975;stroke-linecap:square;stroke-linejoin:round;stroke-miterlimit:10;stroke-dasharray:none;stroke-opacity:1"
           id="path174"
           inkscape:connector-curvature="0" /><path
           d="m 2945,1750.02 v -12.75"
           style="fill:none;stroke:#262626;stroke-width:9.9975;stroke-linecap:square;stroke-linejoin:round;stroke-miterlimit:10;stroke-dasharray:none;stroke-opacity:1"
           id="path176"
           inkscape:connector-curvature="0" /><g
           id="g178"
           transform="scale(10)"><text
             transform="matrix(1,0,0,-1,209.5,27.302)"
             style="font-variant:normal;font-weight:normal;font-size:15.9998px;font-family:Helvetica;-inkscape-font-specification:Helvetica;writing-mode:lr-tb;fill:#262626;fill-opacity:1;fill-rule:nonzero;stroke:none"
             id="text182"><tspan
               x="0 33.500061 42.39595 46.843895 73.750114 82.646004 87.093948"
               y="0"
               sodipodi:role="line"
               id="tspan180">00.10.2</tspan></text><text
             transform="matrix(1,0,0,-1,256,6.052)"
             style="font-variant:normal;font-weight:normal;font-size:17.6002px;font-family:Helvetica;-inkscape-font-specification:Helvetica;writing-mode:lr-tb;fill:#262626;fill-opacity:1;fill-rule:nonzero;stroke:none"
             id="text186"><tspan
               x="0 10.753722 15.646578 21.507444 30.307545"
               y="0"
               sodipodi:role="line"
               id="tspan184">T (s)</tspan></text></g><path
           d="m 2140,475.02 v 1275"
           style="fill:none;stroke:#262626;stroke-width:9.9975;stroke-linecap:square;stroke-linejoin:round;stroke-miterlimit:10;stroke-dasharray:none;stroke-opacity:1"
           id="path188"
           inkscape:connector-curvature="0" /><path
           d="m 3347.5,475.02 v 1275"
           style="fill:none;stroke:#262626;stroke-width:9.9975;stroke-linecap:square;stroke-linejoin:round;stroke-miterlimit:10;stroke-dasharray:none;stroke-opacity:1"
           id="path190"
           inkscape:connector-curvature="0" /><path
           d="m 2140,475.02 h 12.75"
           style="fill:none;stroke:#262626;stroke-width:9.9975;stroke-linecap:square;stroke-linejoin:round;stroke-miterlimit:10;stroke-dasharray:none;stroke-opacity:1"
           id="path192"
           inkscape:connector-curvature="0" /><path
           d="m 2140,985.02 h 12.75"
           style="fill:none;stroke:#262626;stroke-width:9.9975;stroke-linecap:square;stroke-linejoin:round;stroke-miterlimit:10;stroke-dasharray:none;stroke-opacity:1"
           id="path194"
           inkscape:connector-curvature="0" /><path
           d="m 2140,1495.02 h 12.75"
           style="fill:none;stroke:#262626;stroke-width:9.9975;stroke-linecap:square;stroke-linejoin:round;stroke-miterlimit:10;stroke-dasharray:none;stroke-opacity:1"
           id="path196"
           inkscape:connector-curvature="0" /><path
           d="m 3347.5,475.02 h -12.75"
           style="fill:none;stroke:#262626;stroke-width:9.9975;stroke-linecap:square;stroke-linejoin:round;stroke-miterlimit:10;stroke-dasharray:none;stroke-opacity:1"
           id="path198"
           inkscape:connector-curvature="0" /><path
           d="m 3347.5,985.02 h -12.75"
           style="fill:none;stroke:#262626;stroke-width:9.9975;stroke-linecap:square;stroke-linejoin:round;stroke-miterlimit:10;stroke-dasharray:none;stroke-opacity:1"
           id="path200"
           inkscape:connector-curvature="0" /><path
           d="m 3347.5,1495.02 h -12.75"
           style="fill:none;stroke:#262626;stroke-width:9.9975;stroke-linecap:square;stroke-linejoin:round;stroke-miterlimit:10;stroke-dasharray:none;stroke-opacity:1"
           id="path202"
           inkscape:connector-curvature="0" /><g
           id="g204"
           transform="scale(10)"><text
             transform="matrix(1,0,0,-1,199.8,41.877)"
             style="font-variant:normal;font-weight:normal;font-size:15.9998px;font-family:Helvetica;-inkscape-font-specification:Helvetica;writing-mode:lr-tb;fill:#262626;fill-opacity:1;fill-rule:nonzero;stroke:none"
             id="text212"><tspan
               x="0"
               y="0"
               id="tspan206">0</tspan><tspan
               x="0"
               y="-51"
               id="tspan208">2</tspan><tspan
               x="0"
               y="-102"
               id="tspan210">4</tspan></text><text
             transform="matrix(0,1,1,0,192.25,73.752)"
             style="font-variant:normal;font-weight:normal;font-size:17.6002px;font-family:Helvetica;-inkscape-font-specification:Helvetica;writing-mode:lr-tb;fill:#262626;fill-opacity:1;fill-rule:nonzero;stroke:none"
             id="text216"><tspan
               x="0"
               y="0"
               id="tspan214">d</tspan></text></g><path
           d="m 1924.5,870.293 c 0,-5.234 -1.92,-9.414 -5.75,-12.539 -3.83,-3.125 -8.44,-5.293 -13.83,-6.504 -5.39,-1.211 -10.74,-1.816 -16.05,-1.816 h -0.12 c -5.78,0 -11.76,0.55 -17.93,1.644 -6.17,1.09 -12.32,2.668 -18.46,4.738 -6.13,2.075 -11.62,4.325 -16.46,6.743 -3.36,1.722 -7.11,3.91 -11.25,6.562 -4.14,2.656 -8.03,5.625 -11.67,8.902 -3.62,3.286 -6.55,6.821 -8.78,10.606 -2.23,3.793 -3.34,7.641 -3.34,11.551 v 0.113 c 0,4.141 1.15,7.598 3.46,10.371 2.3,2.777 5.25,4.945 8.84,6.504 3.6,1.566 7.45,2.66 11.55,3.285 4.1,0.625 7.99,0.938 11.66,0.938 8.75,0 17.65,-1.192 26.72,-3.578 9.06,-2.379 17.85,-5.641 26.36,-9.79 3.13,-1.558 6.86,-3.726 11.19,-6.5 4.34,-2.769 8.23,-5.718 11.67,-8.843 3.43,-3.125 6.32,-6.621 8.67,-10.492 2.34,-3.864 3.52,-7.754 3.52,-11.665 z m -4.58,0.352 c 0,3.832 -2.05,7.503 -6.15,11.019 -4.1,3.512 -9.04,6.578 -14.83,9.195 -5.78,2.618 -11.71,4.922 -17.81,6.914 -6.09,1.993 -11.29,3.5 -15.58,4.516 v -35.273 c 7.26,-1.801 13.51,-3.207 18.75,-4.223 5.23,-1.016 10.39,-1.523 15.47,-1.523 13.43,0 20.15,3.125 20.15,9.375 z m -60.47,-2.227 v 35.391 c -5,1.171 -9.2,2.129 -12.59,2.875 -3.41,0.738 -7,1.363 -10.78,1.875 -3.79,0.504 -7.29,0.757 -10.49,0.757 -13.52,0 -20.28,-3.046 -20.28,-9.136 0,-7.344 5.88,-13.676 17.64,-18.989 11.76,-5.312 23.93,-9.57 36.5,-12.773"
           style="fill:#262626;fill-opacity:1;fill-rule:nonzero;stroke:none"
           id="path218"
           inkscape:connector-curvature="0" /><g
           id="g220"
           transform="scale(10)"><text
             transform="matrix(0,1,1,0,192.25,97.394856)"
             style="font-variant:normal;font-weight:normal;font-size:17.6002px;font-family:Helvetica;-inkscape-font-specification:Helvetica;writing-mode:lr-tb;fill:#262626;fill-opacity:1;fill-rule:nonzero;stroke:none"
             id="text224"><tspan
               x="0 5.8608665 11.721733 21.507444 31.293156 36.186012 44.986111"
               y="0"
               sodipodi:role="line"
               id="tspan222">(rad/s)</tspan></text></g><path
           d="m 2140,475.02 40.25,0.007 40.25,0.067 40.25,0.168 40.25,0.336 40.25,0.547 40.25,0.824 40.25,1.14 40.25,1.524 40.25,1.957 40.25,2.445 40.25,2.985 40.25,3.578 40.25,4.23 40.25,4.926 40.25,5.695 40.25,6.492 40.25,7.368 40.25,8.285 40.25,9.265 40.25,10.282 40.25,11.371 40.25,12.5 40.25,13.695 40.25,14.941 40.25,16.231 40.25,17.594 40.25,18.988 40.25,20.461 40.25,21.969 40.25,23.535"
           style="fill:none;stroke:#00ff00;stroke-width:20.0025;stroke-linecap:butt;stroke-linejoin:round;stroke-miterlimit:10;stroke-dasharray:none;stroke-opacity:1"
           id="path226"
           inkscape:connector-curvature="0" /><path
           d="m 2140,475.02 40.25,0.031 40.25,0.219 40.25,0.589 40.25,1.164 40.25,1.903 40.25,2.844 40.25,3.968 40.25,5.278 40.25,6.773 40.25,8.469 40.25,10.344 40.25,12.394 40.25,14.656 40.25,17.086 40.25,19.711 40.25,22.52 40.25,25.523 40.25,28.711 40.25,32.078 40.25,35.641 40.25,39.394 40.25,43.329 40.25,47.445 40.25,51.765 40.25,56.258 40.25,60.947 40.25,65.82 40.25,70.87 40.25,76.14 40.25,81.56"
           style="fill:none;stroke:#ff0000;stroke-width:20.0025;stroke-linecap:butt;stroke-linejoin:round;stroke-miterlimit:10;stroke-dasharray:none;stroke-opacity:1"
           id="path228"
           inkscape:connector-curvature="0" /><path
           d="m 2150,475.02 c 0,-5.52 -4.48,-9.997 -10,-9.997 -5.52,0 -10,4.477 -10,9.997 0,5.519 4.48,9.996 10,9.996 5.52,0 10,-4.477 10,-9.996"
           style="fill:#0000ff;fill-opacity:1;fill-rule:nonzero;stroke:none"
           id="path230"
           inkscape:connector-curvature="0" /><path
           d="m 2190.25,475.027 c 0,-5.519 -4.48,-9.996 -10,-9.996 -5.52,0 -10,4.477 -10,9.996 0,5.524 4.48,10 10,10 5.52,0 10,-4.476 10,-10"
           style="fill:#0000ff;fill-opacity:1;fill-rule:nonzero;stroke:none"
           id="path232"
           inkscape:connector-curvature="0" /><path
           d="m 2230.5,475.094 c 0,-5.524 -4.48,-10 -10,-10 -5.52,0 -10,4.476 -10,10 0,5.519 4.48,9.996 10,9.996 5.52,0 10,-4.477 10,-9.996"
           style="fill:#0000ff;fill-opacity:1;fill-rule:nonzero;stroke:none"
           id="path234"
           inkscape:connector-curvature="0" /><path
           d="m 2270.75,475.262 c 0,-5.52 -4.48,-10 -10,-10 -5.52,0 -10,4.48 -10,10 0,5.519 4.48,9.996 10,9.996 5.52,0 10,-4.477 10,-9.996"
           style="fill:#0000ff;fill-opacity:1;fill-rule:nonzero;stroke:none"
           id="path236"
           inkscape:connector-curvature="0" /><path
           d="m 2311,475.586 c 0,-5.52 -4.48,-10 -10,-10 -5.52,0 -10,4.48 -10,10 0,5.519 4.48,9.996 10,9.996 5.52,0 10,-4.477 10,-9.996"
           style="fill:#0000ff;fill-opacity:1;fill-rule:nonzero;stroke:none"
           id="path238"
           inkscape:connector-curvature="0" /><path
           d="m 2351.25,476.113 c 0,-5.519 -4.48,-9.996 -10,-9.996 -5.52,0 -10,4.477 -10,9.996 0,5.52 4.48,9.996 10,9.996 5.52,0 10,-4.476 10,-9.996"
           style="fill:#0000ff;fill-opacity:1;fill-rule:nonzero;stroke:none"
           id="path240"
           inkscape:connector-curvature="0" /><path
           d="m 2391.5,476.891 c 0,-5.52 -4.48,-9.996 -10,-9.996 -5.52,0 -10,4.476 -10,9.996 0,5.519 4.48,10 10,10 5.52,0 10,-4.481 10,-10"
           style="fill:#0000ff;fill-opacity:1;fill-rule:nonzero;stroke:none"
           id="path242"
           inkscape:connector-curvature="0" /><path
           d="m 2431.75,478.016 c 0,-5.52 -4.48,-10 -10,-10 -5.52,0 -10,4.48 -10,10 0,5.519 4.48,9.996 10,9.996 5.52,0 10,-4.477 10,-9.996"
           style="fill:#0000ff;fill-opacity:1;fill-rule:nonzero;stroke:none"
           id="path244"
           inkscape:connector-curvature="0" /><path
           d="m 2472,479.52 c 0,-5.52 -4.48,-9.997 -10,-9.997 -5.52,0 -10,4.477 -10,9.997 0,5.519 4.48,10 10,10 5.52,0 10,-4.481 10,-10"
           style="fill:#0000ff;fill-opacity:1;fill-rule:nonzero;stroke:none"
           id="path246"
           inkscape:connector-curvature="0" /><path
           d="m 2512.25,481.469 c 0,-5.52 -4.48,-9.996 -10,-9.996 -5.52,0 -10,4.476 -10,9.996 0,5.519 4.48,9.996 10,9.996 5.52,0 10,-4.477 10,-9.996"
           style="fill:#0000ff;fill-opacity:1;fill-rule:nonzero;stroke:none"
           id="path248"
           inkscape:connector-curvature="0" /><path
           d="m 2552.5,483.934 c 0,-5.52 -4.48,-9.996 -10,-9.996 -5.52,0 -10,4.476 -10,9.996 0,5.523 4.48,10 10,10 5.52,0 10,-4.477 10,-10"
           style="fill:#0000ff;fill-opacity:1;fill-rule:nonzero;stroke:none"
           id="path250"
           inkscape:connector-curvature="0" /><path
           d="m 2592.75,487.008 c 0,-5.52 -4.48,-9.996 -10,-9.996 -5.52,0 -10,4.476 -10,9.996 0,5.519 4.48,9.996 10,9.996 5.52,0 10,-4.477 10,-9.996"
           style="fill:#0000ff;fill-opacity:1;fill-rule:nonzero;stroke:none"
           id="path252"
           inkscape:connector-curvature="0" /><path
           d="m 2633,490.73 c 0,-5.519 -4.48,-10 -10,-10 -5.52,0 -10,4.481 -10,10 0,5.52 4.48,9.997 10,9.997 5.52,0 10,-4.477 10,-9.997"
           style="fill:#0000ff;fill-opacity:1;fill-rule:nonzero;stroke:none"
           id="path254"
           inkscape:connector-curvature="0" /><path
           d="m 2673.25,495.164 c 0,-5.519 -4.48,-9.996 -10,-9.996 -5.52,0 -10,4.477 -10,9.996 0,5.52 4.48,10 10,10 5.52,0 10,-4.48 10,-10"
           style="fill:#0000ff;fill-opacity:1;fill-rule:nonzero;stroke:none"
           id="path256"
           inkscape:connector-curvature="0" /><path
           d="m 2713.5,500.375 c 0,-5.52 -4.48,-9.996 -10,-9.996 -5.52,0 -10,4.476 -10,9.996 0,5.52 4.48,9.996 10,9.996 5.52,0 10,-4.476 10,-9.996"
           style="fill:#0000ff;fill-opacity:1;fill-rule:nonzero;stroke:none"
           id="path258"
           inkscape:connector-curvature="0" /><path
           d="m 2753.75,506.418 c 0,-5.52 -4.48,-9.996 -10,-9.996 -5.52,0 -10,4.476 -10,9.996 0,5.52 4.48,10 10,10 5.52,0 10,-4.48 10,-10"
           style="fill:#0000ff;fill-opacity:1;fill-rule:nonzero;stroke:none"
           id="path260"
           inkscape:connector-curvature="0" /><path
           d="m 2794,513.352 c 0,-5.52 -4.48,-9.997 -10,-9.997 -5.52,0 -10,4.477 -10,9.997 0,5.523 4.48,10 10,10 5.52,0 10,-4.477 10,-10"
           style="fill:#0000ff;fill-opacity:1;fill-rule:nonzero;stroke:none"
           id="path262"
           inkscape:connector-curvature="0" /><path
           d="m 2834.25,521.23 c 0,-5.519 -4.48,-9.996 -10,-9.996 -5.52,0 -10,4.477 -10,9.996 0,5.52 4.48,9.997 10,9.997 5.52,0 10,-4.477 10,-9.997"
           style="fill:#0000ff;fill-opacity:1;fill-rule:nonzero;stroke:none"
           id="path264"
           inkscape:connector-curvature="0" /><path
           d="m 2874.5,530.098 c 0,-5.52 -4.48,-9.996 -10,-9.996 -5.52,0 -10,4.476 -10,9.996 0,5.519 4.48,9.996 10,9.996 5.52,0 10,-4.477 10,-9.996"
           style="fill:#0000ff;fill-opacity:1;fill-rule:nonzero;stroke:none"
           id="path266"
           inkscape:connector-curvature="0" /><path
           d="m 2914.75,540 c 0,-5.52 -4.48,-10 -10,-10 -5.52,0 -10,4.48 -10,10 0,5.52 4.48,9.996 10,9.996 5.52,0 10,-4.476 10,-9.996"
           style="fill:#0000ff;fill-opacity:1;fill-rule:nonzero;stroke:none"
           id="path268"
           inkscape:connector-curvature="0" /><path
           d="m 2955,550.973 c 0,-5.52 -4.48,-10 -10,-10 -5.52,0 -10,4.48 -10,10 0,5.519 4.48,9.996 10,9.996 5.52,0 10,-4.477 10,-9.996"
           style="fill:#0000ff;fill-opacity:1;fill-rule:nonzero;stroke:none"
           id="path270"
           inkscape:connector-curvature="0" /><path
           d="m 2995.25,563.047 c 0,-5.52 -4.48,-9.996 -10,-9.996 -5.52,0 -10,4.476 -10,9.996 0,5.519 4.48,10 10,10 5.52,0 10,-4.481 10,-10"
           style="fill:#0000ff;fill-opacity:1;fill-rule:nonzero;stroke:none"
           id="path272"
           inkscape:connector-curvature="0" /><path
           d="m 3035.5,576.25 c 0,-5.52 -4.48,-9.996 -10,-9.996 -5.52,0 -10,4.476 -10,9.996 0,5.52 4.48,10 10,10 5.52,0 10,-4.48 10,-10"
           style="fill:#0000ff;fill-opacity:1;fill-rule:nonzero;stroke:none"
           id="path274"
           inkscape:connector-curvature="0" /><path
           d="m 3075.75,590.598 c 0,-5.52 -4.48,-9.996 -10,-9.996 -5.52,0 -10,4.476 -10,9.996 0,5.519 4.48,10 10,10 5.52,0 10,-4.481 10,-10"
           style="fill:#0000ff;fill-opacity:1;fill-rule:nonzero;stroke:none"
           id="path276"
           inkscape:connector-curvature="0" /><path
           d="m 3116,606.102 c 0,-5.52 -4.48,-9.997 -10,-9.997 -5.52,0 -10,4.477 -10,9.997 0,5.519 4.48,9.996 10,9.996 5.52,0 10,-4.477 10,-9.996"
           style="fill:#0000ff;fill-opacity:1;fill-rule:nonzero;stroke:none"
           id="path278"
           inkscape:connector-curvature="0" /><path
           d="m 3156.25,622.762 c 0,-5.52 -4.48,-9.996 -10,-9.996 -5.52,0 -10,4.476 -10,9.996 0,5.519 4.48,10 10,10 5.52,0 10,-4.481 10,-10"
           style="fill:#0000ff;fill-opacity:1;fill-rule:nonzero;stroke:none"
           id="path280"
           inkscape:connector-curvature="0" /><path
           d="m 3196.5,640.574 c 0,-5.519 -4.48,-9.996 -10,-9.996 -5.52,0 -10,4.477 -10,9.996 0,5.524 4.48,10 10,10 5.52,0 10,-4.476 10,-10"
           style="fill:#0000ff;fill-opacity:1;fill-rule:nonzero;stroke:none"
           id="path282"
           inkscape:connector-curvature="0" /><path
           d="m 3236.75,659.527 c 0,-5.519 -4.48,-9.996 -10,-9.996 -5.52,0 -10,4.477 -10,9.996 0,5.52 4.48,9.996 10,9.996 5.52,0 10,-4.476 10,-9.996"
           style="fill:#0000ff;fill-opacity:1;fill-rule:nonzero;stroke:none"
           id="path284"
           inkscape:connector-curvature="0" /><path
           d="m 3277,681.223 c 0,-5.52 -4.48,-9.996 -10,-9.996 -5.52,0 -10,4.476 -10,9.996 0,5.523 4.48,10 10,10 5.52,0 10,-4.477 10,-10"
           style="fill:#0000ff;fill-opacity:1;fill-rule:nonzero;stroke:none"
           id="path286"
           inkscape:connector-curvature="0" /><path
           d="m 3317.25,705.055 c 0,-5.52 -4.48,-9.996 -10,-9.996 -5.52,0 -10,4.476 -10,9.996 0,5.519 4.48,9.996 10,9.996 5.52,0 10,-4.477 10,-9.996"
           style="fill:#0000ff;fill-opacity:1;fill-rule:nonzero;stroke:none"
           id="path288"
           inkscape:connector-curvature="0" /><path
           d="m 3357.5,730.336 c 0,-5.52 -4.48,-9.996 -10,-9.996 -5.52,0 -10,4.476 -10,9.996 0,5.519 4.48,10 10,10 5.52,0 10,-4.481 10,-10"
           style="fill:#0000ff;fill-opacity:1;fill-rule:nonzero;stroke:none"
           id="path290"
           inkscape:connector-curvature="0" /></g></g></g></svg>
