<?xml version="1.0" encoding="UTF-8" standalone="no"?>
<svg
   xmlns:dc="http://purl.org/dc/elements/1.1/"
   xmlns:cc="http://creativecommons.org/ns#"
   xmlns:rdf="http://www.w3.org/1999/02/22-rdf-syntax-ns#"
   xmlns:svg="http://www.w3.org/2000/svg"
   xmlns="http://www.w3.org/2000/svg"
   xmlns:sodipodi="http://sodipodi.sourceforge.net/DTD/sodipodi-0.dtd"
   xmlns:inkscape="http://www.inkscape.org/namespaces/inkscape"
   sodipodi:docname="Fig8_push_SUB.svg"
   viewBox="0 0 446.79663 324.73166"
   height="324.73166"
   width="446.79663"
   xml:space="preserve"
   inkscape:version="1.0rc1 (09960d6, 2020-04-09)"
   version="1.1"
   id="svg3994"><metadata
     id="metadata4000"><rdf:RDF><cc:Work
         rdf:about=""><dc:format>image/svg+xml</dc:format><dc:type
           rdf:resource="http://purl.org/dc/dcmitype/StillImage" /><dc:title></dc:title></cc:Work></rdf:RDF></metadata><defs
     id="defs3998"><clipPath
       id="clipPath4022"
       clipPathUnits="userSpaceOnUse"><path
         inkscape:connector-curvature="0"
         id="path4024"
         d="M -1021,-463 H 1794 V 1233 H -1021 Z" /></clipPath><clipPath
       id="clipPath4042"
       clipPathUnits="userSpaceOnUse"><path
         inkscape:connector-curvature="0"
         id="path4044"
         d="M -1021,-463 H 1794 V 1233 H -1021 Z" /></clipPath><clipPath
       id="clipPath4062"
       clipPathUnits="userSpaceOnUse"><path
         inkscape:connector-curvature="0"
         id="path4064"
         d="M -1021,-463 H 1794 V 1233 H -1021 Z" /></clipPath><clipPath
       id="clipPath4126"
       clipPathUnits="userSpaceOnUse"><path
         inkscape:connector-curvature="0"
         id="path4128"
         d="M 54,36 H 388.8 V 253.44 H 54 Z" /></clipPath><clipPath
       id="clipPath4136"
       clipPathUnits="userSpaceOnUse"><path
         inkscape:connector-curvature="0"
         id="path4138"
         d="M 54,36 H 388.8 V 253.44 H 54 Z" /></clipPath></defs><sodipodi:namedview
     inkscape:document-rotation="0"
     inkscape:current-layer="g4002"
     inkscape:window-maximized="1"
     inkscape:window-y="22"
     inkscape:window-x="0"
     inkscape:cy="39.460429"
     inkscape:cx="268.09863"
     inkscape:zoom="1.262963"
     showgrid="false"
     id="namedview3996"
     inkscape:window-height="988"
     inkscape:window-width="1920"
     inkscape:pageshadow="2"
     inkscape:pageopacity="0"
     guidetolerance="10"
     gridtolerance="10"
     objecttolerance="10"
     borderopacity="1"
     bordercolor="#666666"
     pagecolor="#ffffff" /><g
     transform="matrix(1.25,0,0,-1.25,-39.703369,351.30028)"
     inkscape:label="Fig8_push_SUB"
     inkscape:groupmode="layer"
     id="g4002"><path
   inkscape:connector-curvature="0"
   id="path4006"
   style="fill:#ffffff;fill-opacity:1;fill-rule:nonzero;stroke:none"
   d="M 54,36 H 388.8 V 253.44 H 54 Z" /><path
   inkscape:connector-curvature="0"
   id="path4008"
   style="fill:#000000;fill-opacity:1;fill-rule:nonzero;stroke:#000000;stroke-width:0.8;stroke-linecap:butt;stroke-linejoin:round;stroke-miterlimit:10;stroke-dasharray:none;stroke-opacity:1"
   d="M 80.715176,36 V 32.5" /><g
   transform="translate(68.574551,21.40625)"
   id="g4010"><text
   y="0"
   id="text4012"
   style="font-variant:normal;font-weight:normal;line-height:0%;font-family:DejaVuSans;-inkscape-font-specification:DejaVuSans;writing-mode:lr-tb;fill:#000000;fill-opacity:1;fill-rule:nonzero;stroke:none"
   transform="matrix(1,0,0,-1,8.3789063,0)"><tspan
     style="font-size:10px;line-height:1.25"
     id="tspan4014"
     sodipodi:role="line"
     y="0"
     x="0 6.3600001 9.54">0.3</tspan></text>
<g
   transform="scale(0.01)"
   id="g4016"><g
     id="g4018"><g
       clip-path="url(#clipPath4022)"
       id="g4020"><path
         inkscape:connector-curvature="0"
         id="path4026"
         style="fill:#000000;fill-opacity:1;fill-rule:nonzero;stroke:none"
         d="M 106,355 H 732 V 272 H 106 v 83" /></g></g></g></g><path
   inkscape:connector-curvature="0"
   id="path4028"
   style="fill:#000000;fill-opacity:1;fill-rule:nonzero;stroke:#000000;stroke-width:0.8;stroke-linecap:butt;stroke-linejoin:round;stroke-miterlimit:10;stroke-dasharray:none;stroke-opacity:1"
   d="M 127.30711,36 V 32.5" /><g
   transform="translate(115.16648,21.40625)"
   id="g4030"><text
   y="0"
   id="text4032"
   style="font-variant:normal;font-weight:normal;line-height:0%;font-family:DejaVuSans;-inkscape-font-specification:DejaVuSans;writing-mode:lr-tb;fill:#000000;fill-opacity:1;fill-rule:nonzero;stroke:none"
   transform="matrix(1,0,0,-1,8.3789063,0)"><tspan
     style="font-size:10px;line-height:1.25"
     id="tspan4034"
     sodipodi:role="line"
     y="0"
     x="0 6.3600001 9.54">0.2</tspan></text>
<g
   transform="scale(0.01)"
   id="g4036"><g
     id="g4038"><g
       clip-path="url(#clipPath4042)"
       id="g4040"><path
         inkscape:connector-curvature="0"
         id="path4046"
         style="fill:#000000;fill-opacity:1;fill-rule:nonzero;stroke:none"
         d="M 106,355 H 732 V 272 H 106 v 83" /></g></g></g></g><path
   inkscape:connector-curvature="0"
   id="path4048"
   style="fill:#000000;fill-opacity:1;fill-rule:nonzero;stroke:#000000;stroke-width:0.8;stroke-linecap:butt;stroke-linejoin:round;stroke-miterlimit:10;stroke-dasharray:none;stroke-opacity:1"
   d="M 173.89904,36 V 32.5" /><g
   transform="translate(161.75842,21.40625)"
   id="g4050"><text
   y="0"
   id="text4052"
   style="font-variant:normal;font-weight:normal;line-height:0%;font-family:DejaVuSans;-inkscape-font-specification:DejaVuSans;writing-mode:lr-tb;fill:#000000;fill-opacity:1;fill-rule:nonzero;stroke:none"
   transform="matrix(1,0,0,-1,8.3789063,0)"><tspan
     style="font-size:10px;line-height:1.25"
     id="tspan4054"
     sodipodi:role="line"
     y="0"
     x="0 6.3600001 9.54">0.1</tspan></text>
<g
   transform="scale(0.01)"
   id="g4056"><g
     id="g4058"><g
       clip-path="url(#clipPath4062)"
       id="g4060"><path
         inkscape:connector-curvature="0"
         id="path4066"
         style="fill:#000000;fill-opacity:1;fill-rule:nonzero;stroke:none"
         d="M 106,355 H 732 V 272 H 106 v 83" /></g></g></g></g><path
   inkscape:connector-curvature="0"
   id="path4068"
   style="fill:#000000;fill-opacity:1;fill-rule:nonzero;stroke:#000000;stroke-width:0.8;stroke-linecap:butt;stroke-linejoin:round;stroke-miterlimit:10;stroke-dasharray:none;stroke-opacity:1"
   d="M 220.49097,36 V 32.5" /><text
   y="0"
   id="text4070"
   style="font-variant:normal;font-weight:normal;line-height:0%;font-family:DejaVuSans;-inkscape-font-specification:DejaVuSans;writing-mode:lr-tb;fill:#000000;fill-opacity:1;fill-rule:nonzero;stroke:none"
   transform="matrix(1,0,0,-1,212.53785,21.40625)"><tspan
     style="font-size:10px;line-height:1.25"
     id="tspan4072"
     sodipodi:role="line"
     y="0"
     x="0 6.3600001 9.54">0.0</tspan></text>
<path
   inkscape:connector-curvature="0"
   id="path4074"
   style="fill:#000000;fill-opacity:1;fill-rule:nonzero;stroke:#000000;stroke-width:0.8;stroke-linecap:butt;stroke-linejoin:round;stroke-miterlimit:10;stroke-dasharray:none;stroke-opacity:1"
   d="M 267.08291,36 V 32.5" /><text
   y="0"
   id="text4076"
   style="font-variant:normal;font-weight:normal;line-height:0%;font-family:DejaVuSans;-inkscape-font-specification:DejaVuSans;writing-mode:lr-tb;fill:#000000;fill-opacity:1;fill-rule:nonzero;stroke:none"
   transform="matrix(1,0,0,-1,259.12978,21.40625)"><tspan
     style="font-size:10px;line-height:1.25"
     id="tspan4078"
     sodipodi:role="line"
     y="0"
     x="0 6.3600001 9.54">0.1</tspan></text>
<path
   inkscape:connector-curvature="0"
   id="path4080"
   style="fill:#000000;fill-opacity:1;fill-rule:nonzero;stroke:#000000;stroke-width:0.8;stroke-linecap:butt;stroke-linejoin:round;stroke-miterlimit:10;stroke-dasharray:none;stroke-opacity:1"
   d="M 313.67484,36 V 32.5" /><text
   y="0"
   id="text4082"
   style="font-variant:normal;font-weight:normal;line-height:0%;font-family:DejaVuSans;-inkscape-font-specification:DejaVuSans;writing-mode:lr-tb;fill:#000000;fill-opacity:1;fill-rule:nonzero;stroke:none"
   transform="matrix(1,0,0,-1,305.72171,21.40625)"><tspan
     style="font-size:10px;line-height:1.25"
     id="tspan4084"
     sodipodi:role="line"
     y="0"
     x="0 6.3600001 9.54">0.2</tspan></text>
<path
   inkscape:connector-curvature="0"
   id="path4086"
   style="fill:#000000;fill-opacity:1;fill-rule:nonzero;stroke:#000000;stroke-width:0.8;stroke-linecap:butt;stroke-linejoin:round;stroke-miterlimit:10;stroke-dasharray:none;stroke-opacity:1"
   d="M 360.26677,36 V 32.5" /><text
   y="0"
   id="text4088"
   style="font-variant:normal;font-weight:normal;line-height:0%;font-family:DejaVuSans;-inkscape-font-specification:DejaVuSans;writing-mode:lr-tb;fill:#000000;fill-opacity:1;fill-rule:nonzero;stroke:none"
   transform="matrix(1,0,0,-1,352.31365,21.40625)"><tspan
     style="font-size:10px;line-height:1.25"
     id="tspan4090"
     sodipodi:role="line"
     y="0"
     x="0 6.3600001 9.54">0.3</tspan></text>
<path
   inkscape:connector-curvature="0"
   id="path4092"
   style="fill:#000000;fill-opacity:1;fill-rule:nonzero;stroke:#000000;stroke-width:0.8;stroke-linecap:butt;stroke-linejoin:round;stroke-miterlimit:10;stroke-dasharray:none;stroke-opacity:1"
   d="M 54,56.195376 H 50.5" /><text
   y="0"
   id="text4094"
   style="font-variant:normal;font-weight:normal;line-height:0%;font-family:DejaVuSans;-inkscape-font-specification:DejaVuSans;writing-mode:lr-tb;fill:#000000;fill-opacity:1;fill-rule:nonzero;stroke:none"
   transform="matrix(1,0,0,-1,31.09375,52.398501)"><tspan
     style="font-size:10px;line-height:1.25"
     id="tspan4096"
     sodipodi:role="line"
     y="0"
     x="0 6.3600001 9.54">0.4</tspan></text>
<path
   inkscape:connector-curvature="0"
   id="path4098"
   style="fill:#000000;fill-opacity:1;fill-rule:nonzero;stroke:#000000;stroke-width:0.8;stroke-linecap:butt;stroke-linejoin:round;stroke-miterlimit:10;stroke-dasharray:none;stroke-opacity:1"
   d="M 54,102.78731 H 50.5" /><text
   y="0"
   id="text4100"
   style="font-variant:normal;font-weight:normal;line-height:0%;font-family:DejaVuSans;-inkscape-font-specification:DejaVuSans;writing-mode:lr-tb;fill:#000000;fill-opacity:1;fill-rule:nonzero;stroke:none"
   transform="matrix(1,0,0,-1,31.09375,98.990434)"><tspan
     style="font-size:10px;line-height:1.25"
     id="tspan4102"
     sodipodi:role="line"
     y="0"
     x="0 6.3600001 9.54">0.5</tspan></text>
<path
   inkscape:connector-curvature="0"
   id="path4104"
   style="fill:#000000;fill-opacity:1;fill-rule:nonzero;stroke:#000000;stroke-width:0.8;stroke-linecap:butt;stroke-linejoin:round;stroke-miterlimit:10;stroke-dasharray:none;stroke-opacity:1"
   d="M 54,149.37924 H 50.5" /><text
   y="0"
   id="text4106"
   style="font-variant:normal;font-weight:normal;line-height:0%;font-family:DejaVuSans;-inkscape-font-specification:DejaVuSans;writing-mode:lr-tb;fill:#000000;fill-opacity:1;fill-rule:nonzero;stroke:none"
   transform="matrix(1,0,0,-1,31.09375,145.58237)"><tspan
     style="font-size:10px;line-height:1.25"
     id="tspan4108"
     sodipodi:role="line"
     y="0"
     x="0 6.3600001 9.54">0.6</tspan></text>
<path
   inkscape:connector-curvature="0"
   id="path4110"
   style="fill:#000000;fill-opacity:1;fill-rule:nonzero;stroke:#000000;stroke-width:0.8;stroke-linecap:butt;stroke-linejoin:round;stroke-miterlimit:10;stroke-dasharray:none;stroke-opacity:1"
   d="M 54,195.97117 H 50.5" /><text
   y="0"
   id="text4112"
   style="font-variant:normal;font-weight:normal;line-height:0%;font-family:DejaVuSans;-inkscape-font-specification:DejaVuSans;writing-mode:lr-tb;fill:#000000;fill-opacity:1;fill-rule:nonzero;stroke:none"
   transform="matrix(1,0,0,-1,31.09375,192.1743)"><tspan
     style="font-size:10px;line-height:1.25"
     id="tspan4114"
     sodipodi:role="line"
     y="0"
     x="0 6.3600001 9.54">0.7</tspan></text>
<path
   inkscape:connector-curvature="0"
   id="path4116"
   style="fill:#000000;fill-opacity:1;fill-rule:nonzero;stroke:#000000;stroke-width:0.8;stroke-linecap:butt;stroke-linejoin:round;stroke-miterlimit:10;stroke-dasharray:none;stroke-opacity:1"
   d="M 54,242.56311 H 50.5" /><text
   y="0"
   id="text4118"
   style="font-variant:normal;font-weight:normal;line-height:0%;font-family:DejaVuSans;-inkscape-font-specification:DejaVuSans;writing-mode:lr-tb;fill:#000000;fill-opacity:1;fill-rule:nonzero;stroke:none"
   transform="matrix(1,0,0,-1,31.09375,238.76623)"><tspan
     style="font-size:10px;line-height:1.25"
     id="tspan4120"
     sodipodi:role="line"
     y="0"
     x="0 6.3600001 9.54">0.8</tspan></text>
<g
   id="g4122"><g
     clip-path="url(#clipPath4126)"
     id="g4124"><path
       inkscape:connector-curvature="0"
       id="path4130"
       style="fill:none;stroke:#1f77b4;stroke-width:1.5;stroke-linecap:square;stroke-linejoin:round;stroke-miterlimit:10;stroke-dasharray:none;stroke-opacity:1"
       d="m 218.44473,140.7208 -0.29883,-0.63876 -8.23217,-16.27684 -5.97277,-11.32424 -5.03127,-9.04456 -4.29243,-7.277102 -4.12786,-6.574663 -3.94855,-5.874807 -3.74885,-5.187406 -3.70391,-4.744918 -3.46341,-4.091661 -3.38488,-3.67482 -3.29255,-3.267225 -3.38819,-3.045752 -3.27788,-2.640934 -3.15145,-2.254794 -3.00831,-1.893382 -3.07185,-1.673575 -2.90788,-1.341254 -2.95936,-1.120669 -2.77438,-0.824103 -2.81355,-0.608864 -2.84981,-0.380282 -2.63939,-0.136675 -2.66164,0.07604 -2.67963,0.298816 -2.69236,0.531466 -2.69997,0.773644 -1.71923,0.622541 -3.87805,0.216628 -3.1147,-0.03355 -2.88184,0.182705 -2.45916,-0.0093 -5.98713,0.29858 -4.35757,0.228555 -5.745634,0.574803 -2.522255,0.438198 0.64069,0.0634 0.527592,0.273502 1.205079,0.419578 2.276066,0.870828 2.240325,1.005808 1.647347,0.960847 1.14572,0.954544 0.61726,0.780572 0.39242,0.806038 0.20121,0.837975 0.027,1.098549 -0.23449,1.399281 -0.55783,1.74871 -1.04131,2.434443 -2.232479,4.515141 -3.740401,7.613102 -2.401201,5.424654 -2.13835,5.415906 -1.849532,5.302766 -1.700471,5.573631 -1.527361,5.819725 -1.335158,6.03824 -1.129723,6.22781 -0.911304,6.38426 -0.684484,6.50626 -0.451362,6.59047 -0.214627,6.63684 0.02344,6.64659 0.261839,6.62262 0.497211,6.55814 0.72753,6.45622 0.950516,6.3197 1.164617,6.14865 1.368691,5.94618 1.564338,5.71635 1.743169,5.45963 1.909309,5.18131 1.883787,4.49009 2.000523,4.22968 2.105969,3.95945 2.199876,3.68196 2.282328,3.39994 2.35502,3.11679 2.41789,2.83269 2.4712,2.54818 2.51546,2.26536 2.55328,1.98521 2.58235,1.70861 2.60292,1.43811 2.61591,1.17516 2.62186,0.92044 2.62235,0.67445 2.61684,0.43725 2.60659,0.21034 2.59196,-0.008 2.57339,-0.2155 2.78188,-0.46064 2.7522,-0.68436 2.71871,-0.89441 2.90417,-1.19171 2.8587,-1.40865 3.02522,-1.74277 2.96807,-1.96008 3.1145,-2.32129 3.04683,-2.53051 3.36917,-3.09777 3.46895,-3.51925 2.9752,-3.32124 0.0463,-0.109 -2.36327,-0.15999 -0.234,-0.53353 -0.25826,-0.13927 -0.75544,-0.0521 -0.32454,-0.6459 -0.0966,-0.0109 0.40269,-1.78412 0.31848,-0.0268 0.5191,-2.34076 1.41563,-0.2458 0.21689,-0.22697 1.25796,-0.0183 1.49188,-0.0495 0.25441,-0.23061 0.46603,-0.0357 0.2076,0.20959 0.85809,0.0367 0.1746,0.35122 0.58728,0.0472 0.18453,-0.003 0.37799,-0.17068 1.53279,-0.10595 0.46344,-1.06888 0.17307,-0.78508 0.45269,-0.89509 0.22928,-0.81666 0.41478,-0.78097 0.26416,-0.77015 1.045,-2.0932 0.9575,-1.89304 3.12493,-5.14215 3.55974,-5.1188 5.49664,-7.85199 3.0866,-4.83698 3.11381,-5.28187 3.80818,-6.90969 4.78535,-9.14822 7.74037,-15.32713 10.96731,-21.73882 0.2608,-0.14386 0.26405,-0.38607 0.0837,-0.65181 0.004,-0.32492 0.46911,-0.34469 0.17876,-0.68608 0.11492,-0.66145 0.39521,-0.46219 0.13001,-0.63868 0.007,-0.30859 2.16817,-0.30326 0.37719,-0.38332 0.10201,-0.62482 1.43129,-0.24069 0.4116,-0.35919 0.11948,-0.61788 0.003,-0.30817 0.75593,-0.2458 0.38692,-0.32245 0.11482,-0.6046 0.002,-0.30337 1.57463,-0.12422 1.8118,-0.30548 0.41603,-0.33123 0.0962,-0.59027 2.41945,0.21498 0.50236,-0.27821 0.13728,-0.58128 -0.004,-0.31809 1.47119,-0.005 0.29686,-0.28535 0.0769,-0.58875 -0.005,-0.31089 0.42227,-0.13 0.10417,-0.56039 -0.008,-0.58866 2.7326,0.32842 0.74267,-0.19842 0.21737,-0.5805 5.4e-4,-0.31464 1.81379,0.28254 0.4094,-0.21364 0.12763,-0.58411 -0.003,-0.30609 1.86205,0.24138 0.41979,-0.22605 0.1379,-0.59108 0.66665,-0.003 0.32156,-0.15166 0.11496,-0.57719 2.03006,0.086 0.27309,-0.30834 0.0757,-0.56997 -0.001,-0.27463 -1.93099,-1.44206 -2.72124,-2.41913 -1.30958,-1.44069 -0.98032,-1.336324 -0.7091,-1.256039 -0.57674,-1.484719 -0.29856,-1.413458 -0.0795,-1.361666 0.13479,-1.584583 0.40132,-1.800377 0.69948,-2.011936 1.01001,-2.220455 1.45919,-2.664331 1.94258,-3.085367 2.60728,-3.699661 2.95115,-3.800191 3.27844,-3.855692 3.21946,-3.459095 3.33149,-3.261379 3.23238,-2.866046 3.11393,-2.487653 3.19571,-2.276038 0.19158,-0.131537 -0.0885,-0.06801 -0.0319,-0.02244 -0.63528,1.095758 -0.0932,-0.0274 -0.19156,-0.512179 0.10644,-0.627055 0.0163,-0.220626 -0.32546,-0.580968 0.0371,-0.363967 -0.34765,-0.195743 -0.0124,-0.491754 0.016,-0.157517 -0.46375,-0.156337 -2.80587,0.361439 -0.4175,-0.388529 0.0237,-0.283695 -4.43118,-0.336445 0.0383,-0.05672 -6.48297,-0.437948 -1.38536,0.123859 0.0911,0.02831 -3.19309,0.0223 -1.12073,0.189995 1.15613,-0.146617 -1.05263,0.217405 -1.16259,0.09123 0.10982,0.07686 -1.62873,-0.0032 -0.78765,0.137897 0.0498,0.05263 0.0528,0.04713 3.18885,0.103378 7.46312,-0.05195 7.20423,-0.32617 7.99692,-0.618015 9.5666,-0.997393 10.91294,-1.122614 4.41352,-0.217877 3.31072,0.04924 2.92079,0.260645 2.6496,0.459651 2.46113,0.647674 2.32752,0.827311 2.50508,1.137901 2.41755,1.35114 2.35077,1.56013 2.54907,1.975279 2.4888,2.227078 2.43231,2.477253 2.37404,2.725511 2.31085,2.971492 2.46102,3.54885 2.36636,3.836627 2.26283,4.118891 2.14624,4.390325 2.01812,4.650357 1.87846,4.896617 1.7275,5.126727 1.56679,5.339246 1.39528,5.53079 1.21291,5.69855 1.02413,5.84284 0.82631,5.96026 0.62279,6.05048 0.41712,6.10967 0.20384,6.1401 -0.008,6.14335 -0.2204,6.11653 -0.43099,6.0599 -0.6386,5.97467 -0.84129,5.86134 -1.03769,5.72198 -1.22689,5.5585 -1.4082,5.37254 -1.57869,5.1662 -1.73905,4.94045 -1.88844,4.69924 -2.02636,4.44421 -2.15192,4.17823 -2.26507,3.9034 -2.36558,3.62239 -2.45337,3.33637 -2.5296,3.05086 -2.59531,2.76427 -2.65065,2.47792 -2.69653,2.1939 -2.73494,1.91248 -2.51089,1.49827 -2.52606,1.27424 -2.78851,1.14977 -2.79091,0.89423 -2.78604,0.64765 -2.77553,0.41003 -2.75845,0.18265 -2.73762,-0.0358 -2.71106,-0.24328 -2.92373,-0.49101 -2.88458,-0.71438 -2.84098,-0.92397 -3.02547,-1.22317 -2.96859,-1.43934 -3.13101,-1.77473 -3.06126,-1.9906 -3.20123,-2.35275 -3.11959,-2.56021 -3.23776,-2.93861 -3.34099,-3.33515 -3.4302,-3.74342 -3.50532,-4.16297 -3.56717,-4.58524 -3.61897,-5.00866 -3.82646,-5.68007 -4.01176,-6.36533 -4.18199,-7.05815 -1.21224,-2.1224 v 0" /></g></g><g
   id="g4132"><g
     clip-path="url(#clipPath4136)"
     id="g4134"><path
       inkscape:connector-curvature="0"
       id="path4140"
       style="fill:none;stroke:#ff7f0e;stroke-width:1.5;stroke-linecap:square;stroke-linejoin:round;stroke-miterlimit:10;stroke-dasharray:none;stroke-opacity:1"
       d="m 218.44941,140.63866 -9.03563,-17.7998 -5.66415,-10.67962 -4.94671,-8.86251 -4.49746,-7.605243 -4.17494,-6.630666 -3.99051,-5.925571 -3.78575,-5.233931 -3.73737,-4.787777 -3.49243,-4.128589 -3.4108,-3.707622 -3.31599,-3.296135 -3.41037,-3.072375 -3.29724,-2.664224 -3.16851,-2.27647 -3.02432,-1.913224 -3.08789,-1.691149 -2.92253,-1.355483 -2.97342,-1.132889 -2.78731,-0.83451 -2.8252,-0.618628 -2.85951,-0.389778 -2.64774,-0.145082 -2.66918,0.0683 -2.68626,0.291672 -2.69839,0.524853 -2.705,0.767538 -2.70546,1.019297 -2.45422,1.152273 -2.44348,1.373258 -2.42678,1.599536 -2.4037,1.830414 -2.37383,2.065094 -2.56816,2.546078 -2.51331,2.835936 -2.44798,3.126544 -2.371781,3.416072 -2.284402,3.702534 -2.185664,3.983802 -2.075484,4.257641 -1.953911,4.521724 -1.821135,4.773673 -1.677491,5.011096 -1.523466,5.231626 -1.359703,5.432965 -1.186992,5.61296 -1.006272,5.76956 -0.818617,5.901 -0.62522,6.00573 -0.427376,6.08248 -0.237018,6.68899 0.0041,6.70762 0.245179,6.68768 0.484151,6.62946 0.718989,6.53381 0.860219,5.87447 1.046455,5.73738 1.225509,5.57549 1.396337,5.39066 1.558031,5.18493 1.709834,4.9605 1.851136,4.71969 1.981484,4.46488 2.100574,4.19847 2.20825,3.9228 2.304494,3.64021 2.38939,3.3529 2.4632,3.06297 2.5262,2.77238 2.5788,2.48291 2.6215,2.1962 2.65479,1.91372 2.67926,1.6367 2.69552,1.3663 2.70417,1.10339 2.70585,0.8488 2.70119,0.60308 2.69079,0.36677 2.67527,0.14016 2.65519,-0.0765 2.63111,-0.28309 2.83879,-0.53258 2.80219,-0.75341 2.76241,-0.96139 2.94474,-1.26163 2.8925,-1.47543 3.05444,-1.81088 2.99018,-2.02359 3.13157,-2.38488 3.25786,-2.76931 3.36902,-3.17292 3.27556,-3.3861 3.36936,-3.79233 3.45057,-4.2073 3.69374,-4.86327 3.74331,-5.3015 3.94832,-5.98748 4.13433,-6.68566 4.45865,-7.65389 4.76433,-8.63175 5.49485,-10.43197 7.19964,-14.18499 14.78438,-29.24302 5.68257,-10.65943 4.81477,-8.57283 4.35641,-7.325223 4.18731,-6.613656 4.00332,-5.906458 3.7986,-5.213101 3.75056,-4.764532 3.50503,-4.104379 3.42325,-3.681589 3.32812,-3.268509 3.21873,-2.869354 3.30365,-2.646685 3.17451,-2.258389 3.02984,-1.89483 3.09327,-1.671212 2.92735,-1.335524 2.978,-1.111486 2.79125,-0.813435 2.82881,-0.596262 2.86273,-0.366101 2.65028,-0.122223 2.67127,0.09226 2.68784,0.316714 2.6994,0.550953 2.70536,0.794654 2.70511,1.047374 2.45323,1.178571 2.44179,1.400227 2.42435,1.627098 2.40047,1.858477 2.36976,2.093555 2.56265,2.577707 2.50669,2.867731 2.44018,3.158313 2.36276,3.447605 2.27415,3.733603 2.17417,4.01417 2.06273,4.287057 1.93993,4.549927 1.80593,4.800405 1.66114,5.036092 1.50601,5.254635 1.34122,5.45374 1.16759,5.63127 0.98605,5.7852 0.79772,5.91379 0.60376,6.01551 0.40551,6.08914 0.21289,6.69259 -0.0283,6.70736 -0.26928,6.68356 -0.50793,6.62154 -0.74224,6.52219 -0.88091,5.86073 -1.06642,5.72085 -1.24462,5.55635 -1.41449,5.36912 -1.57514,5.16124 -1.72581,4.9349 -1.86594,4.69245 -1.99507,4.43626 -2.11291,4.1687 -2.21934,3.89218 -2.31433,3.60896 -2.39801,3.32127 -2.47061,3.03117 -2.53246,2.74061 -2.58395,2.45138 -2.62558,2.16507 -2.65788,1.88311 -2.68144,1.60678 -2.69682,1.33714 -2.70469,1.07512 -2.70564,0.82147 -2.70032,0.57676 -2.68933,0.34149 -2.67328,0.11596 -2.65274,-0.0996 -2.86586,-0.34266 -2.83233,-0.57411 -2.79511,-0.79255 -2.98247,-1.09028 -2.93207,-1.31574 -2.87931,-1.52581 -3.03985,-1.8611 -3.18537,-2.22523 -3.11058,-2.44425 -3.23558,-2.8268 -3.3457,-3.22786 -3.44134,-3.64327 -3.52337,-4.06872 -3.59311,-4.49997 -3.65231,-4.9329 -3.86867,-5.61178 -3.90321,-6.052 -4.24592,-7.00547 -4.56262,-7.97877 -0.89545,-1.61607 v 0" /></g></g><g
   id="g4142"><path
     inkscape:connector-curvature="0"
     id="path4144"
     style="fill:none;stroke:#000000;stroke-width:0.8;stroke-linecap:square;stroke-linejoin:miter;stroke-miterlimit:10;stroke-dasharray:none;stroke-opacity:1"
     d="M 54,36 V 253.44" /><path
     inkscape:connector-curvature="0"
     id="path4146"
     style="fill:none;stroke:#000000;stroke-width:0.8;stroke-linecap:square;stroke-linejoin:miter;stroke-miterlimit:10;stroke-dasharray:none;stroke-opacity:1"
     d="M 388.8,36 V 253.44" /><path
     inkscape:connector-curvature="0"
     id="path4148"
     style="fill:none;stroke:#000000;stroke-width:0.8;stroke-linecap:square;stroke-linejoin:miter;stroke-miterlimit:10;stroke-dasharray:none;stroke-opacity:1"
     d="M 54,36 H 388.8" /><path
     inkscape:connector-curvature="0"
     id="path4150"
     style="fill:none;stroke:#000000;stroke-width:0.8;stroke-linecap:square;stroke-linejoin:miter;stroke-miterlimit:10;stroke-dasharray:none;stroke-opacity:1"
     d="M 54,253.44 H 388.8" /><text
     transform="scale(1,-1)"
     id="text1754"
     y="-263.21103"
     x="183.96558"
     style="font-style:normal;font-weight:normal;font-size:23.4667px;line-height:1.25;font-family:sans-serif;fill:#000000;fill-opacity:1;stroke:none;stroke-width:0.8"
     xml:space="preserve"><tspan
       style="stroke-width:0.8"
       y="-263.21103"
       x="183.96558"
       id="tspan1752"
       sodipodi:role="line">Stable</tspan></text></g></g></svg>
