<?xml version="1.0" encoding="UTF-8" standalone="no"?>
<svg
   xmlns:dc="http://purl.org/dc/elements/1.1/"
   xmlns:cc="http://creativecommons.org/ns#"
   xmlns:rdf="http://www.w3.org/1999/02/22-rdf-syntax-ns#"
   xmlns:svg="http://www.w3.org/2000/svg"
   xmlns="http://www.w3.org/2000/svg"
   xmlns:sodipodi="http://sodipodi.sourceforge.net/DTD/sodipodi-0.dtd"
   xmlns:inkscape="http://www.inkscape.org/namespaces/inkscape"
   sodipodi:docname="Fig8_LS_600Measurements.svg"
   viewBox="0 0 446.79663 325.51602"
   height="325.51602"
   width="446.79663"
   xml:space="preserve"
   inkscape:version="1.0rc1 (09960d6, 2020-04-09)"
   version="1.1"
   id="svg3670"><metadata
     id="metadata3676"><rdf:RDF><cc:Work
         rdf:about=""><dc:format>image/svg+xml</dc:format><dc:type
           rdf:resource="http://purl.org/dc/dcmitype/StillImage" /><dc:title></dc:title></cc:Work></rdf:RDF></metadata><defs
     id="defs3674"><clipPath
       id="clipPath3698"
       clipPathUnits="userSpaceOnUse"><path
         inkscape:connector-curvature="0"
         id="path3700"
         d="M -1021,-463 H 1794 V 1233 H -1021 Z" /></clipPath><clipPath
       id="clipPath3718"
       clipPathUnits="userSpaceOnUse"><path
         inkscape:connector-curvature="0"
         id="path3720"
         d="M -1021,-463 H 1794 V 1233 H -1021 Z" /></clipPath><clipPath
       id="clipPath3738"
       clipPathUnits="userSpaceOnUse"><path
         inkscape:connector-curvature="0"
         id="path3740"
         d="M -1021,-463 H 1794 V 1233 H -1021 Z" /></clipPath><clipPath
       id="clipPath3802"
       clipPathUnits="userSpaceOnUse"><path
         inkscape:connector-curvature="0"
         id="path3804"
         d="M 54,36 H 388.8 V 253.44 H 54 Z" /></clipPath><clipPath
       id="clipPath3812"
       clipPathUnits="userSpaceOnUse"><path
         inkscape:connector-curvature="0"
         id="path3814"
         d="M 54,36 H 388.8 V 253.44 H 54 Z" /></clipPath></defs><sodipodi:namedview
     inkscape:document-rotation="0"
     inkscape:current-layer="g3678"
     inkscape:window-maximized="1"
     inkscape:window-y="22"
     inkscape:window-x="0"
     inkscape:cy="155.19758"
     inkscape:cx="191.07787"
     inkscape:zoom="0.92709555"
     showgrid="false"
     id="namedview3672"
     inkscape:window-height="988"
     inkscape:window-width="1920"
     inkscape:pageshadow="2"
     inkscape:pageopacity="0"
     guidetolerance="10"
     gridtolerance="10"
     objecttolerance="10"
     borderopacity="1"
     bordercolor="#666666"
     pagecolor="#ffffff" /><g
     transform="matrix(1.25,0,0,-1.25,-39.703369,352.08462)"
     inkscape:label="Fig8_LS_600Measurements"
     inkscape:groupmode="layer"
     id="g3678"><g
   id="g1821"><path
     d="M 54,36 H 388.8 V 253.44 H 54 Z"
     style="fill:#ffffff;fill-opacity:1;fill-rule:nonzero;stroke:none"
     id="path3682"
     inkscape:connector-curvature="0" /><path
     d="M 85.627255,36 V 32.5"
     style="fill:#000000;fill-opacity:1;fill-rule:nonzero;stroke:#000000;stroke-width:0.8;stroke-linecap:butt;stroke-linejoin:round;stroke-miterlimit:10;stroke-dasharray:none;stroke-opacity:1"
     id="path3684"
     inkscape:connector-curvature="0" /><g
     id="g3686"
     transform="translate(73.48663,21.40625)"><text
   transform="matrix(1,0,0,-1,8.3789063,0)"
   style="font-variant:normal;font-weight:normal;line-height:0%;font-family:DejaVuSans;-inkscape-font-specification:DejaVuSans;writing-mode:lr-tb;fill:#000000;fill-opacity:1;fill-rule:nonzero;stroke:none"
   id="text3688"
   y="0"><tspan
     x="0 6.3600001 9.54"
     y="0"
     sodipodi:role="line"
     id="tspan3690"
     style="font-size:10px;line-height:1.25">0.3</tspan></text>
<g
   id="g3692"
   transform="scale(0.01)"><g
     id="g3694"><g
       id="g3696"
       clip-path="url(#clipPath3698)"><path
         d="M 106,355 H 732 V 272 H 106 v 83"
         style="fill:#000000;fill-opacity:1;fill-rule:nonzero;stroke:none"
         id="path3702"
         inkscape:connector-curvature="0" /></g></g></g></g><path
     d="M 130.90013,36 V 32.5"
     style="fill:#000000;fill-opacity:1;fill-rule:nonzero;stroke:#000000;stroke-width:0.8;stroke-linecap:butt;stroke-linejoin:round;stroke-miterlimit:10;stroke-dasharray:none;stroke-opacity:1"
     id="path3704"
     inkscape:connector-curvature="0" /><g
     id="g3706"
     transform="translate(118.75951,21.40625)"><text
   transform="matrix(1,0,0,-1,8.3789063,0)"
   style="font-variant:normal;font-weight:normal;line-height:0%;font-family:DejaVuSans;-inkscape-font-specification:DejaVuSans;writing-mode:lr-tb;fill:#000000;fill-opacity:1;fill-rule:nonzero;stroke:none"
   id="text3708"
   y="0"><tspan
     x="0 6.3600001 9.54"
     y="0"
     sodipodi:role="line"
     id="tspan3710"
     style="font-size:10px;line-height:1.25">0.2</tspan></text>
<g
   id="g3712"
   transform="scale(0.01)"><g
     id="g3714"><g
       id="g3716"
       clip-path="url(#clipPath3718)"><path
         d="M 106,355 H 732 V 272 H 106 v 83"
         style="fill:#000000;fill-opacity:1;fill-rule:nonzero;stroke:none"
         id="path3722"
         inkscape:connector-curvature="0" /></g></g></g></g><path
     d="M 176.17302,36 V 32.5"
     style="fill:#000000;fill-opacity:1;fill-rule:nonzero;stroke:#000000;stroke-width:0.8;stroke-linecap:butt;stroke-linejoin:round;stroke-miterlimit:10;stroke-dasharray:none;stroke-opacity:1"
     id="path3724"
     inkscape:connector-curvature="0" /><g
     id="g3726"
     transform="translate(164.03239,21.40625)"><text
   transform="matrix(1,0,0,-1,8.3789063,0)"
   style="font-variant:normal;font-weight:normal;line-height:0%;font-family:DejaVuSans;-inkscape-font-specification:DejaVuSans;writing-mode:lr-tb;fill:#000000;fill-opacity:1;fill-rule:nonzero;stroke:none"
   id="text3728"
   y="0"><tspan
     x="0 6.3600001 9.54"
     y="0"
     sodipodi:role="line"
     id="tspan3730"
     style="font-size:10px;line-height:1.25">0.1</tspan></text>
<g
   id="g3732"
   transform="scale(0.01)"><g
     id="g3734"><g
       id="g3736"
       clip-path="url(#clipPath3738)"><path
         d="M 106,355 H 732 V 272 H 106 v 83"
         style="fill:#000000;fill-opacity:1;fill-rule:nonzero;stroke:none"
         id="path3742"
         inkscape:connector-curvature="0" /></g></g></g></g><path
     d="M 221.4459,36 V 32.5"
     style="fill:#000000;fill-opacity:1;fill-rule:nonzero;stroke:#000000;stroke-width:0.8;stroke-linecap:butt;stroke-linejoin:round;stroke-miterlimit:10;stroke-dasharray:none;stroke-opacity:1"
     id="path3744"
     inkscape:connector-curvature="0" /><text
     transform="matrix(1,0,0,-1,213.49277,21.40625)"
     style="font-variant:normal;font-weight:normal;line-height:0%;font-family:DejaVuSans;-inkscape-font-specification:DejaVuSans;writing-mode:lr-tb;fill:#000000;fill-opacity:1;fill-rule:nonzero;stroke:none"
     id="text3746"
     y="0"><tspan
       x="0 6.3600001 9.54"
       y="0"
       sodipodi:role="line"
       id="tspan3748"
       style="font-size:10px;line-height:1.25">0.0</tspan></text><path
     d="M 266.71878,36 V 32.5"
     style="fill:#000000;fill-opacity:1;fill-rule:nonzero;stroke:#000000;stroke-width:0.8;stroke-linecap:butt;stroke-linejoin:round;stroke-miterlimit:10;stroke-dasharray:none;stroke-opacity:1"
     id="path3750"
     inkscape:connector-curvature="0" /><text
     transform="matrix(1,0,0,-1,258.76565,21.40625)"
     style="font-variant:normal;font-weight:normal;line-height:0%;font-family:DejaVuSans;-inkscape-font-specification:DejaVuSans;writing-mode:lr-tb;fill:#000000;fill-opacity:1;fill-rule:nonzero;stroke:none"
     id="text3752"
     y="0"><tspan
       x="0 6.3600001 9.54"
       y="0"
       sodipodi:role="line"
       id="tspan3754"
       style="font-size:10px;line-height:1.25">0.1</tspan></text><path
     d="M 311.99166,36 V 32.5"
     style="fill:#000000;fill-opacity:1;fill-rule:nonzero;stroke:#000000;stroke-width:0.8;stroke-linecap:butt;stroke-linejoin:round;stroke-miterlimit:10;stroke-dasharray:none;stroke-opacity:1"
     id="path3756"
     inkscape:connector-curvature="0" /><text
     transform="matrix(1,0,0,-1,304.03853,21.40625)"
     style="font-variant:normal;font-weight:normal;line-height:0%;font-family:DejaVuSans;-inkscape-font-specification:DejaVuSans;writing-mode:lr-tb;fill:#000000;fill-opacity:1;fill-rule:nonzero;stroke:none"
     id="text3758"
     y="0"><tspan
       x="0 6.3600001 9.54"
       y="0"
       sodipodi:role="line"
       id="tspan3760"
       style="font-size:10px;line-height:1.25">0.2</tspan></text><path
     d="M 357.26454,36 V 32.5"
     style="fill:#000000;fill-opacity:1;fill-rule:nonzero;stroke:#000000;stroke-width:0.8;stroke-linecap:butt;stroke-linejoin:round;stroke-miterlimit:10;stroke-dasharray:none;stroke-opacity:1"
     id="path3762"
     inkscape:connector-curvature="0" /><text
     transform="matrix(1,0,0,-1,349.31141,21.40625)"
     style="font-variant:normal;font-weight:normal;line-height:0%;font-family:DejaVuSans;-inkscape-font-specification:DejaVuSans;writing-mode:lr-tb;fill:#000000;fill-opacity:1;fill-rule:nonzero;stroke:none"
     id="text3764"
     y="0"><tspan
       x="0 6.3600001 9.54"
       y="0"
       sodipodi:role="line"
       id="tspan3766"
       style="font-size:10px;line-height:1.25">0.3</tspan></text><path
     d="M 54,61.499703 H 50.5"
     style="fill:#000000;fill-opacity:1;fill-rule:nonzero;stroke:#000000;stroke-width:0.8;stroke-linecap:butt;stroke-linejoin:round;stroke-miterlimit:10;stroke-dasharray:none;stroke-opacity:1"
     id="path3768"
     inkscape:connector-curvature="0" /><text
     transform="matrix(1,0,0,-1,31.09375,57.702828)"
     style="font-variant:normal;font-weight:normal;line-height:0%;font-family:DejaVuSans;-inkscape-font-specification:DejaVuSans;writing-mode:lr-tb;fill:#000000;fill-opacity:1;fill-rule:nonzero;stroke:none"
     id="text3770"
     y="0"><tspan
       x="0 6.3600001 9.54"
       y="0"
       sodipodi:role="line"
       id="tspan3772"
       style="font-size:10px;line-height:1.25">0.4</tspan></text><path
     d="M 54,106.77258 H 50.5"
     style="fill:#000000;fill-opacity:1;fill-rule:nonzero;stroke:#000000;stroke-width:0.8;stroke-linecap:butt;stroke-linejoin:round;stroke-miterlimit:10;stroke-dasharray:none;stroke-opacity:1"
     id="path3774"
     inkscape:connector-curvature="0" /><text
     transform="matrix(1,0,0,-1,31.09375,102.97571)"
     style="font-variant:normal;font-weight:normal;line-height:0%;font-family:DejaVuSans;-inkscape-font-specification:DejaVuSans;writing-mode:lr-tb;fill:#000000;fill-opacity:1;fill-rule:nonzero;stroke:none"
     id="text3776"
     y="0"><tspan
       x="0 6.3600001 9.54"
       y="0"
       sodipodi:role="line"
       id="tspan3778"
       style="font-size:10px;line-height:1.25">0.5</tspan></text><path
     d="M 54,152.04546 H 50.5"
     style="fill:#000000;fill-opacity:1;fill-rule:nonzero;stroke:#000000;stroke-width:0.8;stroke-linecap:butt;stroke-linejoin:round;stroke-miterlimit:10;stroke-dasharray:none;stroke-opacity:1"
     id="path3780"
     inkscape:connector-curvature="0" /><text
     transform="matrix(1,0,0,-1,31.09375,148.24859)"
     style="font-variant:normal;font-weight:normal;line-height:0%;font-family:DejaVuSans;-inkscape-font-specification:DejaVuSans;writing-mode:lr-tb;fill:#000000;fill-opacity:1;fill-rule:nonzero;stroke:none"
     id="text3782"
     y="0"><tspan
       x="0 6.3600001 9.54"
       y="0"
       sodipodi:role="line"
       id="tspan3784"
       style="font-size:10px;line-height:1.25">0.6</tspan></text><path
     d="M 54,197.31835 H 50.5"
     style="fill:#000000;fill-opacity:1;fill-rule:nonzero;stroke:#000000;stroke-width:0.8;stroke-linecap:butt;stroke-linejoin:round;stroke-miterlimit:10;stroke-dasharray:none;stroke-opacity:1"
     id="path3786"
     inkscape:connector-curvature="0" /><text
     transform="matrix(1,0,0,-1,31.09375,193.52147)"
     style="font-variant:normal;font-weight:normal;line-height:0%;font-family:DejaVuSans;-inkscape-font-specification:DejaVuSans;writing-mode:lr-tb;fill:#000000;fill-opacity:1;fill-rule:nonzero;stroke:none"
     id="text3788"
     y="0"><tspan
       x="0 6.3600001 9.54"
       y="0"
       sodipodi:role="line"
       id="tspan3790"
       style="font-size:10px;line-height:1.25">0.7</tspan></text><path
     d="M 54,242.59123 H 50.5"
     style="fill:#000000;fill-opacity:1;fill-rule:nonzero;stroke:#000000;stroke-width:0.8;stroke-linecap:butt;stroke-linejoin:round;stroke-miterlimit:10;stroke-dasharray:none;stroke-opacity:1"
     id="path3792"
     inkscape:connector-curvature="0" /><text
     transform="matrix(1,0,0,-1,31.09375,238.79435)"
     style="font-variant:normal;font-weight:normal;line-height:0%;font-family:DejaVuSans;-inkscape-font-specification:DejaVuSans;writing-mode:lr-tb;fill:#000000;fill-opacity:1;fill-rule:nonzero;stroke:none"
     id="text3794"
     y="0"><tspan
       x="0 6.3600001 9.54"
       y="0"
       sodipodi:role="line"
       id="tspan3796"
       style="font-size:10px;line-height:1.25">0.8</tspan></text><g
     id="g3798"><g
       id="g3800"
       clip-path="url(#clipPath3802)"><path
         d="m 219.45758,143.63215 -0.1619,-0.26732 -1.77681,-3.06454 -2.273,-4.42423 -9.14633,-18.23591 -3.92048,-7.10792 -4.31153,-7.34175 -4.72869,-7.562365 -4.00001,-5.998384 -3.92014,-5.506033 -3.84117,-5.018541 -3.76031,-4.533963 -3.48988,-3.865523 -3.38671,-3.423973 -3.27513,-3.000986 -3.15366,-2.598671 -3.22332,-2.355727 -3.08606,-1.96967 -2.93653,-1.613863 -2.99048,-1.380108 -2.82363,-1.055764 -2.64446,-0.767041 -2.90363,-0.589023 -2.71326,-0.314008 -2.51171,-0.08052 -2.53042,0.127517 -2.54718,0.342423 -2.55758,0.570228 -2.56473,0.802431 -2.33172,0.940945 -2.56018,1.272384 -2.31684,1.379636 -2.53113,1.765409 -2.50368,2.033732 -2.46923,2.301069 -2.42522,2.572604 -2.37076,2.845082 -2.30838,3.113027 -2.23553,3.378665 -2.15191,3.639108 -2.05772,3.891334 -2.125212,4.51985 -1.987831,4.789063 -1.83812,5.036526 -1.678572,5.25625 -1.508231,5.4468 -1.327838,5.60573 -1.229087,6.20395 -1.003873,6.29165 -0.776999,6.31735 -0.550947,6.27597 -0.346781,6.63007 -0.107453,6.39102 0.111447,6.03654 0.324855,5.91799 0.513007,5.45221 0.654137,4.69168 0.603595,2.89778 0.111595,0.23434 0.02415,-0.15611 -0.122511,-1.13061 -0.722125,-4.16396 -0.961277,-5.75144 -0.07312,-1.6713 0.166699,-0.95332 0.332371,-0.56905 0.498853,-0.35817 0.659669,-0.19788 1.213288,-0.10092 2.263237,0.0694 4.265977,0.37307 5.072587,0.68152 6.17354,1.07837 9.4201,1.92733 19.2725,4.22883 12.45775,2.88394 8.234,2.11558 6.36669,1.86292 5.08292,1.7115 4.46946,1.74052 3.8251,1.72557 3.54049,1.85177 3.2473,1.96846 2.93994,2.05699 2.61004,2.09061 3.13489,2.85251 3.07718,3.12108 2.90616,3.26772 2.66516,3.32978 2.34448,3.28345 1.93652,3.09625 1.44911,2.7454 0.91021,2.22376 0.34915,1.37477 0.0139,0.7162 -0.14265,0.27457 -0.24971,0.007 -0.32587,-0.25447 -0.46566,-0.66334 -0.38136,-0.85609 -0.38624,-1.52026 -0.32233,-2.35995 -0.1469,-3.23555 0.0986,-4.05495 0.35916,-4.74794 0.57742,-5.1044 0.76846,-4.96231 1.11446,-5.76912 1.63035,-7.10867 1.97465,-7.55397 4.69668,-16.59195 0.84771,-2.40534 0.89009,-1.89735 0.95644,-1.49921 1.02731,-1.21162 1.41398,-1.29708 6.26641,-5.25687 1.65514,-1.87894 1.60214,-2.14132 1.69675,-2.63695 1.92196,-3.43141 2.26448,-4.54571 3.6807,-7.98549 5.13601,-11.04945 3.74176,-7.508099 3.43323,-6.420439 3.4035,-5.922678 3.3757,-5.429249 3.34403,-4.939246 3.13552,-4.241745 3.07002,-3.795133 3.16931,-3.552879 3.08743,-3.108534 2.99067,-2.684469 2.87675,-2.287051 2.74736,-1.917873 2.80231,-1.697772 2.85366,-1.462073 2.69146,-1.133009 2.72721,-0.901074 2.54204,-0.618801 2.55867,-0.407348 2.568,-0.188002 2.56679,0.03474 2.55558,0.262548 2.53086,0.490866 2.49146,0.716445 2.43526,0.937558 2.35906,1.148497 2.26062,1.344825 2.13602,1.520564 1.98197,1.668426 1.79381,1.780372 1.56566,1.849966 1.28972,1.866831 0.89274,1.673094 0.52841,1.443967 0.20798,1.20159 -0.0573,0.965271 -0.25904,0.749798 -0.47373,0.650548 -0.70769,0.544363 -0.96063,0.43544 -1.43025,0.367829 -2.0585,0.268849 -4.18632,0.246492 -4.25615,0.363106 -4.92674,0.667535 -9.77848,1.407524 -5.16895,0.501728 -5.59454,0.315465 -6.0095,0.106495 -6.41018,-0.105672 -7.94974,-0.365927 -12.07887,-0.82271 -13.22697,-0.859532 -7.60814,-0.263384 -6.27707,0.01321 -5.55405,0.249447 -4.83197,0.446192 -4.13074,0.582601 -4.02706,0.777713 -1.13036,0.259148 -4.95167,-0.594946 -2.09045,0.03945 -2.25602,0.264113 -2.02996,0.448959 -2.62224,0.636273 -4.75121,0.880849 -2.42857,0.456312 -1.62475,0.524678 -1.49939,0.728453 -1.37273,0.944709 -1.09796,1.005127 -1.13752,1.350587 -1.01151,1.56475 -0.88651,1.773195 -0.84508,2.24312 -0.68469,2.498274 -0.52013,2.752416 -0.35379,3.002295 -0.19506,3.62281 0.0198,3.922947 0.24088,4.219795 0.46832,4.51133 0.78744,5.29336 1.08116,5.61943 1.39722,6.12114 0.76521,2.58938 0.86833,2.23919 0.98433,1.932 1.09635,1.65875 1.19585,1.41737 1.72812,1.6515 1.81927,1.43637 2.09993,1.37015 2.1202,1.13921 2.58446,1.12486 3.00452,1.03902 4.25188,1.19257 5.6765,1.60499 2.58376,0.98708 2.54764,1.21142 2.52803,1.4469 2.52531,1.70449 2.54185,2.00421 2.36338,2.15765 2.16678,2.28175 1.90234,2.31712 1.81155,2.54847 1.66745,2.75311 1.31489,2.58541 v 0"
         style="fill:none;stroke:#1f77b4;stroke-width:1.5;stroke-linecap:square;stroke-linejoin:round;stroke-miterlimit:10;stroke-dasharray:none;stroke-opacity:1"
         id="path3806"
         inkscape:connector-curvature="0" /></g></g><g
     id="g3808"><g
       id="g3810"
       clip-path="url(#clipPath3812)"><path
         d="m 219.46213,143.55234 -8.77982,-17.29588 -5.64721,-10.64083 -4.8115,-8.60593 -4.37536,-7.383314 -4.06218,-6.435483 -3.88317,-5.749425 -3.68423,-5.076611 -3.63737,-4.642025 -3.58095,-4.205907 -3.51287,-3.772355 -3.43149,-3.345758 -3.33562,-2.930675 -3.22459,-2.531667 -3.09815,-2.153143 -2.95649,-1.799177 -3.0178,-1.578379 -2.85527,-1.252165 -2.90391,-1.031195 -2.72101,-0.74235 -2.75675,-0.528398 -2.78879,-0.301796 -2.58081,-0.06671 -2.60017,0.144175 -2.61508,0.364717 -2.62499,0.594696 -2.6293,0.833771 -2.62743,1.08148 -2.61876,1.337217 -2.60267,1.600231 -2.57859,1.869612 -2.54591,2.144282 -2.50407,2.422996 -2.4526,2.704335 -2.39099,2.986711 -2.3189,3.268373 -2.23598,3.547415 -2.14206,3.821798 -2.037015,4.089363 -1.92089,4.347864 -1.793832,4.594997 -1.656144,4.828437 -1.508272,5.045873 -1.350811,5.24507 -1.184508,5.42389 -1.093196,6.09456 -0.87689,6.24925 -0.65327,6.37034 -0.424121,6.45607 -0.191343,6.50524 0.04308,6.51709 0.277135,6.49149 0.508807,6.42878 0.736141,6.32989 0.957274,6.19624 1.170477,6.02972 1.374188,5.83264 1.567036,5.60765 1.595612,4.9213 1.737616,4.69426 1.869156,4.45256 1.989875,4.19853 2.099555,3.93446 2.19812,3.66266 2.2856,3.38531 2.36219,3.10451 2.42813,2.8222 2.48379,2.54023 2.52958,2.26023 2.56602,1.98371 2.59363,1.71199 2.61298,1.44619 2.62467,1.18732 2.6293,0.93617 2.62751,0.69344 2.61986,0.4596 2.60696,0.23509 2.5894,0.0202 2.79993,-0.2117 2.76949,-0.44317 2.73508,-0.66195 2.92038,-0.94945 2.87277,-1.17584 2.8225,-1.38704 2.98119,-1.71309 3.12509,-2.06842 3.05261,-2.28938 3.17595,-2.66381 3.28445,-3.05717 3.37845,-3.46528 3.45873,-3.88384 3.52652,-4.30852 3.58352,-4.73519 3.79412,-5.39889 3.82571,-5.83363 4.00688,-6.51027 4.32253,-7.44944 4.7629,-8.66237 5.46648,-10.41771 7.52953,-14.87977 12.72033,-25.17157 5.64809,-10.63987 4.81249,-8.60477 4.37643,-7.381958 4.06328,-6.433956 3.88433,-5.747708 3.68538,-5.07474 3.63855,-4.639938 3.58214,-4.20361 3.51406,-3.769861 3.43264,-3.343089 3.33674,-2.927851 3.22565,-2.52872 3.09912,-2.150107 2.9574,-1.79609 3.01868,-1.575036 2.85605,-1.24882 2.90465,-1.02761 2.72165,-0.738824 2.75732,-0.524658 2.7893,-0.29784 2.58121,-0.06289 2.60048,0.148171 2.61531,0.368891 2.62512,0.599041 2.62933,0.838281 2.62733,1.086144 2.61853,1.342024 2.6023,1.605164 2.57807,1.874653 2.54521,2.14941 2.50322,2.428186 2.45155,2.709559 2.38975,2.991938 2.31746,3.27357 2.23434,3.552544 2.14022,3.826821 2.03497,4.094239 1.91863,4.35255 1.79138,4.599451 1.6535,4.832615 1.50544,5.049734 1.34781,5.24857 1.18135,5.42699 1.08959,6.09746 0.87315,6.25159 0.64942,6.37209 0.4202,6.45722 0.18737,6.50575 -0.0471,6.51697 -0.28109,6.49073 -0.51271,6.4274 -0.73995,6.32791 -0.96097,6.19368 -1.17401,6.02662 -1.37756,5.82905 -1.57021,5.60361 -1.59833,4.91724 -1.74015,4.68991 -1.87149,4.44796 -1.99201,4.19372 -2.10148,3.9295 -2.19983,3.65757 -2.28712,3.38014 -2.36351,3.09928 -2.42925,2.81697 -2.48472,2.53502 -2.53035,2.25508 -2.56661,1.97864 -2.59405,1.707 -2.61327,1.44134 -2.62482,1.18259 -2.62933,0.9316 -2.62741,0.68902 -2.61967,0.45537 -2.60668,0.23102 -2.58903,0.0163 -2.79945,-0.21573 -2.76893,-0.447 -2.73447,-0.66555 -2.91966,-0.95312 -2.872,-1.17926 -2.8217,-1.39023 -2.98029,-1.71627 -3.12411,-2.07156 -3.05162,-2.29225 -3.1749,-2.66658 -3.28335,-3.05982 -3.37731,-3.4678 -3.45757,-3.88617 -3.52535,-4.31066 -3.58237,-4.73715 -3.79297,-5.4007 -3.8246,-5.83521 -4.00584,-6.51166 -4.32152,-7.45068 -2.0384,-3.65454 v 0"
         style="fill:none;stroke:#ff7f0e;stroke-width:1.5;stroke-linecap:square;stroke-linejoin:round;stroke-miterlimit:10;stroke-dasharray:none;stroke-opacity:1"
         id="path3816"
         inkscape:connector-curvature="0" /></g></g><g
     id="g3818"><path
       d="M 54,36 V 253.44"
       style="fill:none;stroke:#000000;stroke-width:0.8;stroke-linecap:square;stroke-linejoin:miter;stroke-miterlimit:10;stroke-dasharray:none;stroke-opacity:1"
       id="path3820"
       inkscape:connector-curvature="0" /><path
       d="M 388.8,36 V 253.44"
       style="fill:none;stroke:#000000;stroke-width:0.8;stroke-linecap:square;stroke-linejoin:miter;stroke-miterlimit:10;stroke-dasharray:none;stroke-opacity:1"
       id="path3822"
       inkscape:connector-curvature="0" /><path
       d="M 54,36 H 388.8"
       style="fill:none;stroke:#000000;stroke-width:0.8;stroke-linecap:square;stroke-linejoin:miter;stroke-miterlimit:10;stroke-dasharray:none;stroke-opacity:1"
       id="path3824"
       inkscape:connector-curvature="0" /><path
       d="M 54,253.44 H 388.8"
       style="fill:none;stroke:#000000;stroke-width:0.8;stroke-linecap:square;stroke-linejoin:miter;stroke-miterlimit:10;stroke-dasharray:none;stroke-opacity:1"
       id="path3826"
       inkscape:connector-curvature="0" /></g><text
     xml:space="preserve"
     style="font-style:normal;font-weight:normal;font-size:23.4667px;line-height:1.25;font-family:sans-serif;fill:#000000;fill-opacity:1;stroke:none;stroke-width:0.8"
     x="169.59688"
     y="-263.8385"
     id="text1754"
     transform="scale(1,-1)"><tspan
       sodipodi:role="line"
       id="tspan1752"
       x="169.59688"
       y="-263.8385"
       style="stroke-width:0.8">Unstable</tspan></text></g>








</g></svg>
