<?xml version="1.0" encoding="UTF-8" standalone="no"?>
<svg
   xmlns:dc="http://purl.org/dc/elements/1.1/"
   xmlns:cc="http://creativecommons.org/ns#"
   xmlns:rdf="http://www.w3.org/1999/02/22-rdf-syntax-ns#"
   xmlns:svg="http://www.w3.org/2000/svg"
   xmlns="http://www.w3.org/2000/svg"
   xmlns:sodipodi="http://sodipodi.sourceforge.net/DTD/sodipodi-0.dtd"
   xmlns:inkscape="http://www.inkscape.org/namespaces/inkscape"
   sodipodi:docname="Fig8_SUB.svg"
   viewBox="0 0 446.79663 324.6033"
   height="324.6033"
   width="446.79663"
   xml:space="preserve"
   inkscape:version="1.0rc1 (09960d6, 2020-04-09)"
   version="1.1"
   id="svg3832"><metadata
     id="metadata3838"><rdf:RDF><cc:Work
         rdf:about=""><dc:format>image/svg+xml</dc:format><dc:type
           rdf:resource="http://purl.org/dc/dcmitype/StillImage" /><dc:title></dc:title></cc:Work></rdf:RDF></metadata><defs
     id="defs3836"><clipPath
       id="clipPath3860"
       clipPathUnits="userSpaceOnUse"><path
         inkscape:connector-curvature="0"
         id="path3862"
         d="M -1021,-463 H 1794 V 1233 H -1021 Z" /></clipPath><clipPath
       id="clipPath3880"
       clipPathUnits="userSpaceOnUse"><path
         inkscape:connector-curvature="0"
         id="path3882"
         d="M -1021,-463 H 1794 V 1233 H -1021 Z" /></clipPath><clipPath
       id="clipPath3900"
       clipPathUnits="userSpaceOnUse"><path
         inkscape:connector-curvature="0"
         id="path3902"
         d="M -1021,-463 H 1794 V 1233 H -1021 Z" /></clipPath><clipPath
       id="clipPath3964"
       clipPathUnits="userSpaceOnUse"><path
         inkscape:connector-curvature="0"
         id="path3966"
         d="M 54,36 H 388.8 V 253.44 H 54 Z" /></clipPath><clipPath
       id="clipPath3974"
       clipPathUnits="userSpaceOnUse"><path
         inkscape:connector-curvature="0"
         id="path3976"
         d="M 54,36 H 388.8 V 253.44 H 54 Z" /></clipPath></defs><sodipodi:namedview
     inkscape:document-rotation="0"
     inkscape:current-layer="g3840"
     inkscape:window-maximized="1"
     inkscape:window-y="22"
     inkscape:window-x="0"
     inkscape:cy="219.47595"
     inkscape:cx="306.08083"
     inkscape:zoom="1.6342023"
     showgrid="false"
     id="namedview3834"
     inkscape:window-height="988"
     inkscape:window-width="1920"
     inkscape:pageshadow="2"
     inkscape:pageopacity="0"
     guidetolerance="10"
     gridtolerance="10"
     objecttolerance="10"
     borderopacity="1"
     bordercolor="#666666"
     pagecolor="#ffffff" /><g
     transform="matrix(1.25,0,0,-1.25,-39.703369,351.17191)"
     inkscape:label="Fig8_SUB"
     inkscape:groupmode="layer"
     id="g3840"><path
   inkscape:connector-curvature="0"
   id="path3844"
   style="fill:#ffffff;fill-opacity:1;fill-rule:nonzero;stroke:none"
   d="M 54,36 H 388.8 V 253.44 H 54 Z" /><path
   inkscape:connector-curvature="0"
   id="path3846"
   style="fill:#000000;fill-opacity:1;fill-rule:nonzero;stroke:#000000;stroke-width:0.8;stroke-linecap:butt;stroke-linejoin:round;stroke-miterlimit:10;stroke-dasharray:none;stroke-opacity:1"
   d="M 86.944784,36 V 32.5" /><g
   transform="translate(74.804159,21.40625)"
   id="g3848"><text
   y="0"
   id="text3850"
   style="font-variant:normal;font-weight:normal;line-height:0%;font-family:DejaVuSans;-inkscape-font-specification:DejaVuSans;writing-mode:lr-tb;fill:#000000;fill-opacity:1;fill-rule:nonzero;stroke:none"
   transform="matrix(1,0,0,-1,8.3789063,0)"><tspan
     style="font-size:10px;line-height:1.25"
     id="tspan3852"
     sodipodi:role="line"
     y="0"
     x="0 6.3600001 9.54">0.3</tspan></text>
<g
   transform="scale(0.01)"
   id="g3854"><g
     id="g3856"><g
       clip-path="url(#clipPath3860)"
       id="g3858"><path
         inkscape:connector-curvature="0"
         id="path3864"
         style="fill:#000000;fill-opacity:1;fill-rule:nonzero;stroke:none"
         d="M 106,355 H 732 V 272 H 106 v 83" /></g></g></g></g><path
   inkscape:connector-curvature="0"
   id="path3866"
   style="fill:#000000;fill-opacity:1;fill-rule:nonzero;stroke:#000000;stroke-width:0.8;stroke-linecap:butt;stroke-linejoin:round;stroke-miterlimit:10;stroke-dasharray:none;stroke-opacity:1"
   d="M 132.87693,36 V 32.5" /><g
   transform="translate(120.7363,21.40625)"
   id="g3868"><text
   y="0"
   id="text3870"
   style="font-variant:normal;font-weight:normal;line-height:0%;font-family:DejaVuSans;-inkscape-font-specification:DejaVuSans;writing-mode:lr-tb;fill:#000000;fill-opacity:1;fill-rule:nonzero;stroke:none"
   transform="matrix(1,0,0,-1,8.3789063,0)"><tspan
     style="font-size:10px;line-height:1.25"
     id="tspan3872"
     sodipodi:role="line"
     y="0"
     x="0 6.3600001 9.54">0.2</tspan></text>
<g
   transform="scale(0.01)"
   id="g3874"><g
     id="g3876"><g
       clip-path="url(#clipPath3880)"
       id="g3878"><path
         inkscape:connector-curvature="0"
         id="path3884"
         style="fill:#000000;fill-opacity:1;fill-rule:nonzero;stroke:none"
         d="M 106,355 H 732 V 272 H 106 v 83" /></g></g></g></g><path
   inkscape:connector-curvature="0"
   id="path3886"
   style="fill:#000000;fill-opacity:1;fill-rule:nonzero;stroke:#000000;stroke-width:0.8;stroke-linecap:butt;stroke-linejoin:round;stroke-miterlimit:10;stroke-dasharray:none;stroke-opacity:1"
   d="M 178.80907,36 V 32.5" /><g
   transform="translate(166.66844,21.40625)"
   id="g3888"><text
   y="0"
   id="text3890"
   style="font-variant:normal;font-weight:normal;line-height:0%;font-family:DejaVuSans;-inkscape-font-specification:DejaVuSans;writing-mode:lr-tb;fill:#000000;fill-opacity:1;fill-rule:nonzero;stroke:none"
   transform="matrix(1,0,0,-1,8.3789063,0)"><tspan
     style="font-size:10px;line-height:1.25"
     id="tspan3892"
     sodipodi:role="line"
     y="0"
     x="0 6.3600001 9.54">0.1</tspan></text>
<g
   transform="scale(0.01)"
   id="g3894"><g
     id="g3896"><g
       clip-path="url(#clipPath3900)"
       id="g3898"><path
         inkscape:connector-curvature="0"
         id="path3904"
         style="fill:#000000;fill-opacity:1;fill-rule:nonzero;stroke:none"
         d="M 106,355 H 732 V 272 H 106 v 83" /></g></g></g></g><path
   inkscape:connector-curvature="0"
   id="path3906"
   style="fill:#000000;fill-opacity:1;fill-rule:nonzero;stroke:#000000;stroke-width:0.8;stroke-linecap:butt;stroke-linejoin:round;stroke-miterlimit:10;stroke-dasharray:none;stroke-opacity:1"
   d="M 224.74121,36 V 32.5" /><text
   y="0"
   id="text3908"
   style="font-variant:normal;font-weight:normal;line-height:0%;font-family:DejaVuSans;-inkscape-font-specification:DejaVuSans;writing-mode:lr-tb;fill:#000000;fill-opacity:1;fill-rule:nonzero;stroke:none"
   transform="matrix(1,0,0,-1,216.78809,21.40625)"><tspan
     style="font-size:10px;line-height:1.25"
     id="tspan3910"
     sodipodi:role="line"
     y="0"
     x="0 6.3600001 9.54">0.0</tspan></text>
<path
   inkscape:connector-curvature="0"
   id="path3912"
   style="fill:#000000;fill-opacity:1;fill-rule:nonzero;stroke:#000000;stroke-width:0.8;stroke-linecap:butt;stroke-linejoin:round;stroke-miterlimit:10;stroke-dasharray:none;stroke-opacity:1"
   d="M 270.67335,36 V 32.5" /><text
   y="0"
   id="text3914"
   style="font-variant:normal;font-weight:normal;line-height:0%;font-family:DejaVuSans;-inkscape-font-specification:DejaVuSans;writing-mode:lr-tb;fill:#000000;fill-opacity:1;fill-rule:nonzero;stroke:none"
   transform="matrix(1,0,0,-1,262.72023,21.40625)"><tspan
     style="font-size:10px;line-height:1.25"
     id="tspan3916"
     sodipodi:role="line"
     y="0"
     x="0 6.3600001 9.54">0.1</tspan></text>
<path
   inkscape:connector-curvature="0"
   id="path3918"
   style="fill:#000000;fill-opacity:1;fill-rule:nonzero;stroke:#000000;stroke-width:0.8;stroke-linecap:butt;stroke-linejoin:round;stroke-miterlimit:10;stroke-dasharray:none;stroke-opacity:1"
   d="M 316.6055,36 V 32.5" /><text
   y="0"
   id="text3920"
   style="font-variant:normal;font-weight:normal;line-height:0%;font-family:DejaVuSans;-inkscape-font-specification:DejaVuSans;writing-mode:lr-tb;fill:#000000;fill-opacity:1;fill-rule:nonzero;stroke:none"
   transform="matrix(1,0,0,-1,308.65237,21.40625)"><tspan
     style="font-size:10px;line-height:1.25"
     id="tspan3922"
     sodipodi:role="line"
     y="0"
     x="0 6.3600001 9.54">0.2</tspan></text>
<path
   inkscape:connector-curvature="0"
   id="path3924"
   style="fill:#000000;fill-opacity:1;fill-rule:nonzero;stroke:#000000;stroke-width:0.8;stroke-linecap:butt;stroke-linejoin:round;stroke-miterlimit:10;stroke-dasharray:none;stroke-opacity:1"
   d="M 362.53764,36 V 32.5" /><text
   y="0"
   id="text3926"
   style="font-variant:normal;font-weight:normal;line-height:0%;font-family:DejaVuSans;-inkscape-font-specification:DejaVuSans;writing-mode:lr-tb;fill:#000000;fill-opacity:1;fill-rule:nonzero;stroke:none"
   transform="matrix(1,0,0,-1,354.58451,21.40625)"><tspan
     style="font-size:10px;line-height:1.25"
     id="tspan3928"
     sodipodi:role="line"
     y="0"
     x="0 6.3600001 9.54">0.3</tspan></text>
<path
   inkscape:connector-curvature="0"
   id="path3930"
   style="fill:#000000;fill-opacity:1;fill-rule:nonzero;stroke:#000000;stroke-width:0.8;stroke-linecap:butt;stroke-linejoin:round;stroke-miterlimit:10;stroke-dasharray:none;stroke-opacity:1"
   d="M 54,57.41921 H 50.5" /><text
   y="0"
   id="text3932"
   style="font-variant:normal;font-weight:normal;line-height:0%;font-family:DejaVuSans;-inkscape-font-specification:DejaVuSans;writing-mode:lr-tb;fill:#000000;fill-opacity:1;fill-rule:nonzero;stroke:none"
   transform="matrix(1,0,0,-1,31.09375,53.622335)"><tspan
     style="font-size:10px;line-height:1.25"
     id="tspan3934"
     sodipodi:role="line"
     y="0"
     x="0 6.3600001 9.54">0.4</tspan></text>
<path
   inkscape:connector-curvature="0"
   id="path3936"
   style="fill:#000000;fill-opacity:1;fill-rule:nonzero;stroke:#000000;stroke-width:0.8;stroke-linecap:butt;stroke-linejoin:round;stroke-miterlimit:10;stroke-dasharray:none;stroke-opacity:1"
   d="M 54,103.35135 H 50.5" /><text
   y="0"
   id="text3938"
   style="font-variant:normal;font-weight:normal;line-height:0%;font-family:DejaVuSans;-inkscape-font-specification:DejaVuSans;writing-mode:lr-tb;fill:#000000;fill-opacity:1;fill-rule:nonzero;stroke:none"
   transform="matrix(1,0,0,-1,31.09375,99.554477)"><tspan
     style="font-size:10px;line-height:1.25"
     id="tspan3940"
     sodipodi:role="line"
     y="0"
     x="0 6.3600001 9.54">0.5</tspan></text>
<path
   inkscape:connector-curvature="0"
   id="path3942"
   style="fill:#000000;fill-opacity:1;fill-rule:nonzero;stroke:#000000;stroke-width:0.8;stroke-linecap:butt;stroke-linejoin:round;stroke-miterlimit:10;stroke-dasharray:none;stroke-opacity:1"
   d="M 54,149.28349 H 50.5" /><text
   y="0"
   id="text3944"
   style="font-variant:normal;font-weight:normal;line-height:0%;font-family:DejaVuSans;-inkscape-font-specification:DejaVuSans;writing-mode:lr-tb;fill:#000000;fill-opacity:1;fill-rule:nonzero;stroke:none"
   transform="matrix(1,0,0,-1,31.09375,145.48662)"><tspan
     style="font-size:10px;line-height:1.25"
     id="tspan3946"
     sodipodi:role="line"
     y="0"
     x="0 6.3600001 9.54">0.6</tspan></text>
<path
   inkscape:connector-curvature="0"
   id="path3948"
   style="fill:#000000;fill-opacity:1;fill-rule:nonzero;stroke:#000000;stroke-width:0.8;stroke-linecap:butt;stroke-linejoin:round;stroke-miterlimit:10;stroke-dasharray:none;stroke-opacity:1"
   d="M 54,195.21564 H 50.5" /><text
   y="0"
   id="text3950"
   style="font-variant:normal;font-weight:normal;line-height:0%;font-family:DejaVuSans;-inkscape-font-specification:DejaVuSans;writing-mode:lr-tb;fill:#000000;fill-opacity:1;fill-rule:nonzero;stroke:none"
   transform="matrix(1,0,0,-1,31.09375,191.41876)"><tspan
     style="font-size:10px;line-height:1.25"
     id="tspan3952"
     sodipodi:role="line"
     y="0"
     x="0 6.3600001 9.54">0.7</tspan></text>
<path
   inkscape:connector-curvature="0"
   id="path3954"
   style="fill:#000000;fill-opacity:1;fill-rule:nonzero;stroke:#000000;stroke-width:0.8;stroke-linecap:butt;stroke-linejoin:round;stroke-miterlimit:10;stroke-dasharray:none;stroke-opacity:1"
   d="M 54,241.14778 H 50.5" /><text
   y="0"
   id="text3956"
   style="font-variant:normal;font-weight:normal;line-height:0%;font-family:DejaVuSans;-inkscape-font-specification:DejaVuSans;writing-mode:lr-tb;fill:#000000;fill-opacity:1;fill-rule:nonzero;stroke:none"
   transform="matrix(1,0,0,-1,31.09375,237.3509)"><tspan
     style="font-size:10px;line-height:1.25"
     id="tspan3958"
     sodipodi:role="line"
     y="0"
     x="0 6.3600001 9.54">0.8</tspan></text>
<g
   id="g3960"><g
     clip-path="url(#clipPath3964)"
     id="g3962"><path
       inkscape:connector-curvature="0"
       id="path3968"
       style="fill:none;stroke:#1f77b4;stroke-width:1.5;stroke-linecap:square;stroke-linejoin:round;stroke-miterlimit:10;stroke-dasharray:none;stroke-opacity:1"
       d="m 222.72394,140.74766 -5e-4,-0.20645 -0.25766,-1.47405 -0.71638,-2.834 -1.16637,-3.73774 -1.68525,-4.63049 -2.18891,-5.33991 -2.78856,-6.18827 -3.24341,-6.65195 -3.6812,-7.0451 -3.67898,-6.599506 -3.81663,-6.411622 -3.64621,-5.702732 -3.62122,-5.252574 -3.41749,-4.577947 -3.36768,-4.150348 -3.30853,-3.730854 -3.23667,-3.321913 -3.15108,-2.928112 -3.2572,-2.716373 -3.15309,-2.336221 -3.03111,-1.9799 -3.11422,-1.773006 -2.9678,-1.44405 -3.03961,-1.236336 -3.11132,-1.013768 -2.93288,-0.72518 -2.98922,-0.510841 -3.042,-0.286521 -2.83174,-0.05176 -2.8699,0.160186 -2.90323,0.382617 -2.9316,0.614876 -2.95377,0.856976 -2.96913,1.108441 -2.97671,1.368775 -2.97603,1.637199 -2.6969,1.727505 -2.68112,1.960188 -2.65767,2.196772 -2.62471,2.436327 -2.58334,2.677881 -2.53304,2.920255 -2.47252,3.162054 -2.4016,3.401815 -2.54722,4.014501 -2.434383,4.293013 -2.307337,4.561821 -2.166273,4.818364 -2.012247,5.060438 -1.84501,5.28527 -1.664303,5.48948 -1.47255,5.67157 -1.271146,5.8295 -1.059366,5.96062 -0.841194,6.06407 -0.616641,6.13898 -0.388161,6.18383 -0.157709,6.19461 0.07361,6.17846 0.304645,6.13096 0.53355,6.05395 0.75776,5.94731 0.975686,5.81283 1.185865,5.65341 1.38735,5.46883 1.578242,5.2632 1.758086,5.03829 1.926171,4.79629 2.080828,4.54029 2.222219,4.27226 2.350019,3.99466 2.235484,3.38465 2.318705,3.14599 2.63532,3.18354 2.46257,2.64216 2.51702,2.40212 2.56265,2.1633 2.60082,1.92695 2.63145,1.69299 2.65367,1.46306 2.66717,1.23816 2.94018,1.10978 2.93829,0.85432 2.92819,0.60847 2.91137,0.37223 2.88768,0.14671 2.85932,-0.0693 3.08035,-0.3088 3.03536,-0.53967 2.98623,-0.75762 2.93289,-0.9618 3.11424,-1.25774 3.04635,-1.467 3.20296,-1.79672 3.12172,-2.00462 3.25359,-2.35861 3.16056,-2.55738 3.27041,-2.92627 3.36391,-3.3107 3.44031,-3.70699 3.50232,-4.11342 4.25489,-5.44955 3.57863,-4.96599 3.94013,-5.86627 4.10742,-6.54368 5.44915,-9.31515 5.08536,-9.26623 4.37425,-8.32662 6.88361,-13.56614 16.2692,-32.21467 5.391,-10.04268 4.53998,-8.01529 4.39425,-7.307789 5.53679,-8.506002 2.95559,-4.206773 3.38609,-4.514978 3.49624,-4.321254 3.43204,-3.897666 3.16705,-3.290648 3.26388,-3.081906 3.16178,-2.689708 3.04155,-2.314729 2.90825,-1.962118 3.19009,-1.868801 3.04442,-1.506567 2.88583,-1.177309 2.93851,-0.94412 2.75655,-0.652725 2.79543,-0.429761 2.5931,-0.187181 2.61801,0.02149 2.63873,0.23961 2.6538,0.468158 2.66348,0.705619 2.66627,0.952607 2.66216,1.207643 2.6503,1.470401 2.62961,1.739921 2.60062,2.01493 2.56129,2.29425 2.51253,2.576679 2.45381,2.860544 2.38398,3.144122 2.30253,3.425127 2.20997,3.70208 2.10659,3.972941 1.99164,4.234521 1.86578,4.485095 1.72947,4.722323 1.58328,4.943973 1.42842,5.148501 1.26514,5.33267 1.18427,6.00165 0.97239,6.1645 0.75269,6.29449 0.52857,6.3868 0.2995,6.44553 0.067,6.46842 -0.16629,6.45966 -0.39581,6.41555 -0.62114,6.33473 -0.84094,6.21835 -1.05355,6.06851 -1.25803,5.88804 -1.45242,5.67547 -1.63323,5.43743 -1.80393,5.17814 -1.79248,4.50305 -1.91515,4.25685 -2.02687,4.00015 -2.12696,3.73492 -2.21592,3.46402 -2.29366,3.18873 -2.36201,2.91264 -2.41996,2.63523 -2.46827,2.35843 -2.50999,2.08413 -2.54282,1.81259 -2.56653,1.54553 -2.58238,1.28461 -2.59066,1.03096 -2.59292,0.78503 -2.58902,0.54755 -2.57942,0.31942 -2.56554,0.0998 -2.54709,-0.10976 -2.75309,-0.34761 -2.72293,-0.57387 -2.6889,-0.78721 -2.87087,-1.07934 -2.82414,-1.30028 -2.98643,-1.63053 -2.92739,-1.85216 -3.0696,-2.21124 -3.19637,-2.59502 -3.11559,-2.81697 -3.22331,-3.21146 -3.31954,-3.61999 -3.39972,-4.04314 -3.46582,-4.47113 -3.5215,-4.9026 -3.72755,-5.57881 -3.91124,-6.27215 -4.07922,-6.976 -1.47647,-2.62976 v 0" /></g></g><g
   id="g3970"><g
     clip-path="url(#clipPath3974)"
     id="g3972"><path
       inkscape:connector-curvature="0"
       id="path3978"
       style="fill:none;stroke:#ff7f0e;stroke-width:1.5;stroke-linecap:square;stroke-linejoin:round;stroke-miterlimit:10;stroke-dasharray:none;stroke-opacity:1"
       d="m 222.72856,140.66669 -8.90768,-17.54774 -5.72944,-10.79578 -4.88156,-8.73125 -4.43908,-7.490828 -4.12133,-6.529196 -3.93972,-5.833148 -3.73787,-5.150536 -3.69034,-4.709623 -3.6331,-4.267153 -3.37363,-3.631841 -3.27989,-3.224758 -3.37312,-3.001285 -3.26105,-2.597695 -3.13345,-2.214545 -2.99054,-1.85593 -3.05297,-1.634468 -2.88902,-1.303523 -2.9388,-1.081714 -2.75427,-0.788101 -2.79109,-0.573159 -2.82427,-0.345404 -2.61439,-0.105518 -2.63478,0.10664 -2.65077,0.328625 -2.66179,0.560235 -2.66724,0.801144 -2.66653,1.050909 -2.65903,1.308941 -2.64413,1.574507 -2.62121,1.846712 -2.58968,2.124495 -2.54898,2.406623 -2.49855,2.691691 -2.43796,2.978114 -2.36677,3.264149 -2.28466,3.547888 -2.19142,3.827286 -2.08689,4.100171 -1.971119,4.364282 -1.844204,4.617285 -1.706443,4.856826 -1.558256,5.080556 -1.400219,5.286176 -1.233063,5.47152 -1.057657,5.63449 -0.875016,5.7733 -0.739124,6.42606 -0.508299,6.52516 -0.273138,6.58752 -0.03563,6.61221 0.202185,6.59889 0.438261,6.54774 0.670587,6.45951 0.89724,6.33547 1.116414,6.17741 1.326467,5.98751 1.391439,5.29671 1.549986,5.09211 1.69872,4.86931 1.837056,4.63055 1.964563,4.37822 2.08094,4.11464 2.18607,3.84218 2.27993,3.56307 2.36262,3.27951 2.4344,2.99355 2.49555,2.70711 2.54651,2.42192 2.58773,2.13959 2.61974,1.86155 2.6431,1.58901 2.65842,1.32307 2.66631,1.0646 2.66737,0.81438 2.66223,0.57298 2.65149,0.34086 2.63576,0.11835 2.61559,-0.0943 2.8258,-0.33382 2.79282,-0.56221 2.75617,-0.77778 2.94099,-1.07123 2.89135,-1.29375 3.05558,-1.6247 2.99321,-1.84691 3.13636,-2.20568 3.0626,-2.42055 3.18561,-2.79734 3.29398,-3.19225 3.38814,-3.6012 3.46895,-4.01996 3.53769,-4.44438 3.59613,-4.87042 3.8094,-5.53916 4.00116,-6.22485 4.1764,-6.9185 4.48925,-7.87636 4.93166,-9.10822 5.92538,-11.43287 9.40145,-18.70877 9.04297,-17.82591 5.72598,-10.79956 4.87766,-8.73583 4.43485,-7.496188 4.11693,-6.535231 3.93517,-5.83993 3.7333,-5.15793 3.68565,-4.717874 3.62837,-4.276232 3.3692,-3.641147 3.27556,-3.234632 3.36872,-3.012309 3.25687,-2.609206 3.12955,-2.226408 2.98694,-1.867997 3.04946,-1.647546 2.8859,-1.316611 2.93582,-1.095746 2.75172,-0.801917 2.78875,-0.587817 2.8222,-0.360917 2.61275,-0.120493 2.63344,0.09095 2.64978,0.312229 2.66117,0.543151 2.66705,0.783401 2.6668,1.032542 2.65981,1.289998 2.64547,1.555047 2.62316,1.826805 2.59226,2.104224 2.55224,2.386083 2.50255,2.670988 2.44269,2.95737 2.37229,3.243495 2.29098,3.527468 2.19854,3.807251 2.09484,4.080684 1.97987,4.345506 1.85376,4.599394 1.71677,4.839987 1.56933,5.06494 1.41197,5.271948 1.24545,5.45882 1.07062,5.62349 0.88845,5.7641 0.75425,6.41821 0.52377,6.51971 0.28883,6.58454 0.0514,6.61175 -0.18644,6.60096 -0.42269,6.55229 -0.65532,6.46649 -0.88241,6.34478 -1.10214,6.18891 -1.31284,6.00105 -1.3796,5.31075 -1.53883,5.10756 -1.68829,4.886 -1.8274,4.64832 -1.9557,4.39689 -2.0729,4.13406 -2.17884,3.86215 -2.2735,3.58345 -2.35701,3.30014 -2.42956,3.01429 -2.49148,2.72782 -2.54315,2.44249 -2.58506,2.15991 -2.61772,1.8815 -2.64169,1.60853 -2.65757,1.34208 -2.66597,1.08305 -2.66751,0.8322 -2.6628,0.59015 -2.65244,0.35735 -2.63706,0.13413 -2.61718,-0.0793 -2.82784,-0.31821 -2.79513,-0.54745 -2.75871,-0.76387 -2.94394,-1.0571 -2.89447,-1.28056 -3.05906,-1.61151 -2.9968,-1.83475 -3.14026,-2.19372 -3.06653,-2.40963 -3.18976,-2.78677 -3.29832,-3.18216 -3.39261,-3.59168 -3.47348,-4.0111 -3.54222,-4.43624 -3.60059,-4.86305 -3.81389,-5.53231 -4.00555,-6.21867 -4.18056,-6.9131 -4.49311,-7.87169 -0.73529,-1.32807 v 0" /></g></g><g
   id="g3980"><path
     inkscape:connector-curvature="0"
     id="path3982"
     style="fill:none;stroke:#000000;stroke-width:0.8;stroke-linecap:square;stroke-linejoin:miter;stroke-miterlimit:10;stroke-dasharray:none;stroke-opacity:1"
     d="M 54,36 V 253.44" /><path
     inkscape:connector-curvature="0"
     id="path3984"
     style="fill:none;stroke:#000000;stroke-width:0.8;stroke-linecap:square;stroke-linejoin:miter;stroke-miterlimit:10;stroke-dasharray:none;stroke-opacity:1"
     d="M 388.8,36 V 253.44" /><path
     inkscape:connector-curvature="0"
     id="path3986"
     style="fill:none;stroke:#000000;stroke-width:0.8;stroke-linecap:square;stroke-linejoin:miter;stroke-miterlimit:10;stroke-dasharray:none;stroke-opacity:1"
     d="M 54,36 H 388.8" /><path
     inkscape:connector-curvature="0"
     id="path3988"
     style="fill:none;stroke:#000000;stroke-width:0.8;stroke-linecap:square;stroke-linejoin:miter;stroke-miterlimit:10;stroke-dasharray:none;stroke-opacity:1"
     d="M 54,253.44 H 388.8" /></g><text
   transform="scale(1,-1)"
   xml:space="preserve"
   style="font-style:normal;font-weight:normal;font-size:23.4667px;line-height:1.25;font-family:sans-serif;fill:#000000;fill-opacity:1;stroke:none;stroke-width:0.8"
   x="183.96558"
   y="-263.10834"
   id="text1754"><tspan
     sodipodi:role="line"
     id="tspan1752"
     x="183.96558"
     y="-263.10834"
     style="stroke-width:0.8">Stable</tspan></text></g></svg>
